<svg xmlns="http://www.w3.org/2000/svg" xmlns:xlink="http://www.w3.org/1999/xlink" width="58" height="57" viewBox="0 0 58 57">
  <defs>
    <filter id="Path_12830" x="0" y="0" width="58" height="57" filterUnits="userSpaceOnUse">
      <feOffset dx="3" dy="2" input="SourceAlpha"/>
      <feGaussianBlur result="blur"/>
      <feFlood flood-color="#ffbe00"/>
      <feComposite operator="in" in2="blur"/>
      <feComposite in="SourceGraphic"/>
    </filter>
  </defs>
  <g id="Group_526" data-name="Group 526" transform="translate(0 -10)">
    <g transform="matrix(1, 0, 0, 1, 0, 10)" filter="url(#Path_12830)">
      <g id="Path_12830-2" data-name="Path 12830" fill="#fff">
        <path d="M 27.5 54 C 23.92207908630371 54 20.45171928405762 53.29948043823242 17.18531036376953 51.91791152954102 C 14.02982997894287 50.58325958251953 11.19571018218994 48.67237091064453 8.761670112609863 46.23833847045898 C 6.327630043029785 43.80429840087891 4.416749954223633 40.97018051147461 3.082089900970459 37.81470108032227 C 1.700520038604736 34.54829025268555 1 31.07792091369629 1 27.5 C 1 23.92207908630371 1.700520038604736 20.45171928405762 3.082089900970459 17.1853199005127 C 4.416749954223633 14.02982997894287 6.327630043029785 11.19571018218994 8.761670112609863 8.761670112609863 C 11.19571018218994 6.327640056610107 14.02982997894287 4.416749954223633 17.18531036376953 3.082089900970459 C 20.45171928405762 1.700520038604736 23.92207908630371 1 27.5 1 C 31.07792091369629 1 34.54827880859375 1.700520038604736 37.81468963623047 3.082089900970459 C 40.97016906738281 4.416749954223633 43.80429077148438 6.327640056610107 46.23833084106445 8.761670112609863 C 48.67237091064453 11.19571018218994 50.58324813842773 14.02982997894287 51.91791152954102 17.1853199005127 C 53.29948043823242 20.45171928405762 54 23.92207908630371 54 27.5 C 54 31.07792091369629 53.29948043823242 34.54829025268555 51.91791152954102 37.81470108032227 C 50.58324813842773 40.97018051147461 48.67237091064453 43.80429840087891 46.23833084106445 46.23833847045898 C 43.80429077148438 48.67237091064453 40.97016906738281 50.58325958251953 37.81468963623047 51.91791152954102 C 34.54827880859375 53.29948043823242 31.07792091369629 54 27.5 54 Z" stroke="none"/>
        <path d="M 27.5 2 C 24.056640625 2 20.71733856201172 2.673938751220703 17.57485961914062 4.003101348876953 C 14.53858184814453 5.287338256835938 11.81129837036133 7.126258850097656 9.468780517578125 9.468780517578125 C 7.126258850097656 11.81129837036133 5.287338256835938 14.53858184814453 4.003101348876953 17.57487106323242 C 2.673938751220703 20.71735000610352 2 24.056640625 2 27.5 C 2 30.943359375 2.673938751220703 34.28266906738281 4.003101348876953 37.42514801025391 C 5.287330627441406 40.46142959594727 7.126258850097656 43.1887092590332 9.468780517578125 45.53123092651367 C 11.81129837036133 47.87374877929688 14.53858184814453 49.71266937255859 17.57485961914062 50.99691009521484 C 20.71733856201172 52.3260612487793 24.056640625 53 27.5 53 C 30.943359375 53 34.28266143798828 52.3260612487793 37.42514038085938 50.99691009521484 C 40.46141815185547 49.71266937255859 43.18869781494141 47.87374877929688 45.53121948242188 45.53123092651367 C 47.87374114990234 43.1887092590332 49.71266937255859 40.46142959594727 50.99689865112305 37.42514801025391 C 52.3260612487793 34.28266906738281 53 30.943359375 53 27.5 C 53 24.056640625 52.3260612487793 20.71735000610352 50.99689865112305 17.57487106323242 C 49.71266174316406 14.53858184814453 47.87374114990234 11.81129837036133 45.53121948242188 9.468780517578125 C 43.18869781494141 7.126258850097656 40.46141815185547 5.287338256835938 37.42514038085938 4.003101348876953 C 34.28266143798828 2.673938751220703 30.943359375 2 27.5 2 M 27.5 0 C 42.68782806396484 0 55 12.31217956542969 55 27.5 C 55 42.68785095214844 42.68782806396484 55 27.5 55 C 12.31216812133789 55 0 42.68785095214844 0 27.5 C 0 12.31217956542969 12.31216812133789 0 27.5 0 Z" stroke="none" fill="#000"/>
      </g>
    </g>
    <g id="Group_356" data-name="Group 356" transform="translate(36.053 29.07) rotate(90)">
      <g id="Group_357" data-name="Group 357">
        <path id="Path_12829" data-name="Path 12829" d="M17.232,9.976h-.557c-4.32,0-5.521,0-9.841,0A1.428,1.428,0,1,1,6.79,7.127c1.93,0,.741,0,2.671,0h7.772c-.159-.173-.251-.28-.351-.38Q14.741,4.6,12.6,2.458a1.4,1.4,0,0,1-.32-1.635A1.345,1.345,0,0,1,13.687.018a1.764,1.764,0,0,1,.9.422q3.568,3.517,7.094,7.078a1.387,1.387,0,0,1,0,2.064q-3.533,3.552-7.086,7.085A1.421,1.421,0,1,1,12.6,14.641c1.421-1.434,2.853-2.857,4.28-4.286.1-.1.192-.208.35-.38" transform="translate(-5.281 -0.001)" fill="#ffbe00"/>
      </g>
    </g>
  </g>
</svg>
