<svg xmlns="http://www.w3.org/2000/svg" xmlns:xlink="http://www.w3.org/1999/xlink" width="44.029" height="44.029" viewBox="0 0 44.029 44.029">
  <defs>
    <clipPath id="clip-path">
      <rect id="Rectangle_585" data-name="Rectangle 585" width="31.264" height="31.002" fill="none"/>
    </clipPath>
  </defs>
  <g id="Group_5337" data-name="Group 5337" transform="translate(51.365 -126.289)">
    <g id="Group_5336" data-name="Group 5336" transform="translate(-7.336 148.211) rotate(135)" clip-path="url(#clip-path)">
      <path id="Path_58605" data-name="Path 58605" d="M4.352,21.278c-.184-.379-.169-.493.141-.769.395-.352.8-.7,1.2-1.041.1-.082.174-.143.107-.3-.355-.829-.7-1.663-1.043-2.5a1.1,1.1,0,0,1-1.669-.2c-.187-.187-.38-.368-.559-.563a1.012,1.012,0,0,1,0-1.453c.249-.268.511-.525.777-.777a.254.254,0,0,0,.073-.342c-.158-.34-.3-.689-.432-1.039-.048-.125-.091-.141-.186-.044a3.791,3.791,0,0,1-.355.334.939.939,0,0,1-1.161.057A5.959,5.959,0,0,1,.164,11.572,1.591,1.591,0,0,1,0,11.229V10.74A9.4,9.4,0,0,1,1.411,9.2a.316.316,0,0,0,.083-.415c-.218-.48-.414-.969-.609-1.459a2.586,2.586,0,0,1,.6-2.994q.579-.586,1.165-1.165a1.426,1.426,0,0,1,2.342.175q3.684,4.936,7.361,9.876c.166.224.247.275.487.067,1.966-1.707,3.91-3.439,5.914-5.1.289-.24.587-.471.9-.685.161-.112.161-.2.085-.37-.566-1.235-1.123-2.474-1.681-3.713A2.082,2.082,0,0,1,18.516.834c.172-.173.343-.348.518-.517a.864.864,0,0,1,1.411.1Q22,2.476,23.544,4.538c.283.377.283.378.7.174A1.683,1.683,0,0,1,26.558,7c-.211.436-.211.436.176.727q2.011,1.512,4.021,3.024a.906.906,0,0,1,.1,1.575c-.165.165-.329.333-.5.5a2.043,2.043,0,0,1-2.41.434c-1.251-.555-2.5-1.116-3.739-1.7-.252-.118-.364-.061-.512.14-.338.458-.7.9-1.053,1.344a.468.468,0,1,1-.711-.568q.712-.853,1.362-1.755a27.287,27.287,0,0,0,2.462-4.153.722.722,0,0,0-.165-.98.762.762,0,0,0-.954-.051A27.054,27.054,0,0,0,18.7,9.41Q11.911,15.27,5.139,21.155c-.252.218-.487.322-.787.123M22.593,5.559A1.45,1.45,0,0,0,23,5.331L19.7.941c-.234.233-.457.44-.663.664a1.139,1.139,0,0,0-.219,1.3c.3.687.621,1.363.934,2.044.254.571.51,1.142.761,1.714.048.11.083.156.213.072.618-.4,1.244-.785,1.868-1.175M25.742,8.6c-.385.619-.76,1.245-1.162,1.854-.128.194-.094.253.1.339,1.138.506,2.271,1.023,3.406,1.535a1.316,1.316,0,0,0,1.889-.428c.371-.317.371-.317,0-.6L26.2,8.463c-.3-.222-.3-.223-.459.136M11.3,14.59c.11-.088.215-.185.332-.262.224-.147.228-.275.06-.5Q9.3,10.655,6.929,7.463,5.59,5.669,4.25,3.875c-.279-.372-.573-.431-.867-.148-.483.465-.963.935-1.416,1.428a1.492,1.492,0,0,0-.34,1.533,18.225,18.225,0,0,0,.867,2.1.226.226,0,0,0,.007.06q2,4.832,4,9.665c.079.192.143.131.249.038.4-.349.8-.692,1.2-1.039L11.3,14.59M1.924,10a.438.438,0,0,0-.09.057q-.42.417-.836.838a.175.175,0,0,0,.011.286q.317.306.623.622c.1.1.17.1.282.01.61-.505.617-.518.308-1.255-.059-.14-.114-.281-.176-.419-.023-.052-.034-.12-.121-.138m1.889,4.418c-.2.219-.369.41-.549.585-.144.141-.122.255.012.383.183.174.357.358.538.534.076.074.157.2.276.081s.307-.179.227-.383c-.15-.383-.318-.758-.5-1.2" transform="translate(0 0)" fill="#030304"/>
      <path id="Path_58606" data-name="Path 58606" d="M21.617,0a.722.722,0,0,1,.165.98A27.286,27.286,0,0,1,19.32,5.133q-.651.9-1.362,1.755a.5.5,0,0,0,0,.734,5.111,5.111,0,0,0-.772.926c-.339-.221-.489-.191-.8.167q-5.02,5.8-10.04,11.591A9.508,9.508,0,0,1,0,23.684a7.994,7.994,0,0,1,.543-2.158,1.526,1.526,0,0,1,.363-.684.808.808,0,0,1,.1.068,3.5,3.5,0,0,0,1.988.838.456.456,0,0,0,.546-.364.447.447,0,0,0-.385-.53c-.138-.032-.282-.04-.421-.071a2.128,2.128,0,0,1-1.423-.906,1.245,1.245,0,0,0,.117-.134,8.7,8.7,0,0,1,1.406-1.749c.56-.5,1.082-1.042,1.633-1.552.946-.876,1.868-1.778,2.8-2.668l2.644-2.524Q11.3,9.923,12.688,8.6c.9-.863,1.8-1.731,2.712-2.586,1.029-.966,2.045-1.947,3.057-2.932Q19.624,1.943,20.818.834a5.287,5.287,0,0,0,.8-.834" transform="translate(3.973 5.587)" fill="#d48eff"/>
      <path id="Path_58607" data-name="Path 58607" d="M2.98,21.035a1.527,1.527,0,0,0-.363.684,7.994,7.994,0,0,0-.543,2.158c-.292.03-.583.08-.876.087A1.1,1.1,0,0,1,0,22.747a13.145,13.145,0,0,1,.151-1.359A9.419,9.419,0,0,1,1.64,17.6a.532.532,0,0,0-.03-.742,7.563,7.563,0,0,1,.842-.973c.3.2.536.1.787-.123Q10.016,9.882,16.8,4.016A27.05,27.05,0,0,1,22.737.143a.762.762,0,0,1,.954.051,5.287,5.287,0,0,1-.8.834Q21.7,2.138,20.53,3.273c-1.012.984-2.027,1.965-3.057,2.932-.911.855-1.808,1.723-2.712,2.586q-1.388,1.325-2.775,2.652-1.321,1.263-2.644,2.524c-.933.89-1.856,1.792-2.8,2.668-.551.51-1.073,1.05-1.633,1.552A8.708,8.708,0,0,0,3.5,19.936a1.229,1.229,0,0,1-.117.134A2.629,2.629,0,0,1,2.928,18.8c-.056-.327-.264-.494-.538-.446s-.386.284-.348.611a3.6,3.6,0,0,0,.939,2.071" transform="translate(1.899 5.394)" fill="#a54cdc"/>
      <path id="Path_58608" data-name="Path 58608" d="M2.523,8.256A.531.531,0,0,1,2.553,9a9.418,9.418,0,0,0-1.487,3.788,13.108,13.108,0,0,0-.151,1.359,1.1,1.1,0,0,0,1.2,1.218c.292-.007.584-.057.876-.087A9.507,9.507,0,0,0,9.33,11.9Q14.351,6.1,19.37.306c.309-.357.46-.387.8-.167.213.271.118.5-.084.731-1.036,1.189-2.062,2.386-3.1,3.569-.168.191-.169.271.043.429q4.908,3.647,9.8,7.311a1.432,1.432,0,0,1,.168,2.383c-.409.411-.809.832-1.234,1.226a2.548,2.548,0,0,1-2.878.515q-.875-.351-1.741-.724a.291.291,0,0,0-.391.07c-.319.342-.654.669-.99,1a1.023,1.023,0,0,1-1.561,0q-.317-.308-.626-.626a1.017,1.017,0,0,1,0-1.581c.18-.179.238-.268-.06-.361s-.629-.367-.9-.315-.493.4-.707.638c-.757.86-1.388.879-2.15,0-.113-.13-.246-.243-.365-.368a1.02,1.02,0,0,1-.052-1.475c.037-.046.1-.078.089-.167-.757-.312-1.527-.62-2.287-.951-.183-.079-.235.028-.319.124a19.581,19.581,0,0,1-2.144,2.251,10.321,10.321,0,0,1-5.4,2.344,4.84,4.84,0,0,1-1.605.082A2.016,2.016,0,0,1,0,14.064,10.983,10.983,0,0,1,1.451,9.05q.171-.288.355-.568c.211-.32.344-.359.717-.227m23.777,5.7c.47-.413.458-.692-.045-1.068L16.76,5.8c-.6-.451-.6-.451-1.07.166l-4.075,4.675c.111.053.19.1.273.131l8.143,3.373L23.2,15.457a1.659,1.659,0,0,0,1.894-.295c.417-.386.8-.8,1.2-1.209m-8.172,1.253a.193.193,0,0,0,.078.158c.215.216.433.429.646.647.109.112.191.067.281-.025.235-.239.47-.478.712-.71.12-.116.135-.181-.045-.247-.276-.1-.544-.224-.816-.336a.889.889,0,0,0-.856.513m-3.3-1.072a.336.336,0,0,0,.088-.042c.224-.22.447-.44.667-.664.1-.1.008-.139-.068-.171-.27-.115-.541-.226-.812-.339a.529.529,0,0,0-.7.278.155.155,0,0,0,.041.191q.343.345.688.687a.507.507,0,0,0,.1.061" transform="translate(0.986 13.996)" fill="#030304"/>
      <path id="Path_58609" data-name="Path 58609" d="M8.8,7.906,5.449,10.83c-.4.347-.8.69-1.2,1.039-.106.093-.17.154-.249-.038Q2.011,7,.007,2.165A.228.228,0,0,1,0,2.105C.488,1.508,1.051.982,1.585.429A1.052,1.052,0,0,1,3.367.566C4.7,2.377,6.05,4.168,7.384,5.974c.474.642.987,1.257,1.417,1.932" transform="translate(2.495 6.684)" fill="#f9efff"/>
      <path id="Path_58610" data-name="Path 58610" d="M9.751,11.041c-.43-.675-.942-1.29-1.417-1.932C7,7.3,5.645,5.512,4.317,3.7a1.052,1.052,0,0,0-1.781-.137C2,4.117,1.439,4.643.95,5.24a18.258,18.258,0,0,1-.867-2.1,1.492,1.492,0,0,1,.34-1.533C.876,1.113,1.355.643,1.838.178c.294-.283.588-.224.867.148Q4.047,2.118,5.384,3.914q2.377,3.186,4.76,6.367c.168.223.164.351-.06.5-.118.077-.222.174-.332.262" transform="translate(1.545 3.549)" fill="#ebc9ff"/>
      <path id="Path_58611" data-name="Path 58611" d="M5.471,3.3a1.316,1.316,0,0,1-1.889.428C2.447,3.215,1.314,2.7.176,2.193c-.194-.086-.228-.145-.1-.339C.478,1.245.852.619,1.237,0a.3.3,0,0,0,.116.172C2.039.687,2.728,1.2,3.407,1.721S4.812,2.735,5.471,3.3" transform="translate(24.504 8.598)" fill="#f9efff"/>
      <path id="Path_58612" data-name="Path 58612" d="M1.046,4.007C.733,3.326.409,2.651.112,1.964A1.139,1.139,0,0,1,.331.664C.537.44.76.233.994,0L4.3,4.39a1.453,1.453,0,0,1-.409.228c-.143-.194-.279-.393-.429-.582A1.332,1.332,0,0,0,1.28,3.885a.334.334,0,0,1-.235.122" transform="translate(18.706 0.941)" fill="#ebc9ff"/>
      <path id="Path_58613" data-name="Path 58613" d="M0,.617A.334.334,0,0,0,.235.495,1.332,1.332,0,0,1,2.412.645c.15.189.286.388.429.582C2.218,1.618,1.592,2,.974,2.4c-.13.084-.164.037-.213-.072C.509,1.758.254,1.188,0,.617" transform="translate(19.751 4.332)" fill="#f9efff"/>
      <path id="Path_58614" data-name="Path 58614" d="M4.233,3.588C3.575,3.023,2.855,2.539,2.169,2.01S.8.975.116.46A.3.3,0,0,1,0,.288C.164-.07.164-.07.459.153L4.235,2.992c.37.278.37.278,0,.6" transform="translate(25.742 8.31)" fill="#ebc9ff"/>
      <path id="Path_58615" data-name="Path 58615" d="M.995,0c.087.018.1.086.121.138.062.138.118.279.176.419.309.737.3.75-.308,1.255C.873,1.9.8,1.9.7,1.8Q.4,1.487.08,1.181A.175.175,0,0,1,.069.9Q.485.475.9.057A.437.437,0,0,1,.995,0" transform="translate(0.929 9.998)" fill="#fddf7c"/>
      <path id="Path_58616" data-name="Path 58616" d="M.648,0c.187.441.355.817.5,1.2.08.2-.119.279-.227.383S.725,1.576.649,1.5C.468,1.326.294,1.142.111.968-.024.84-.045.726.1.585.278.41.443.219.648,0" transform="translate(3.165 14.416)" fill="#fddf7c"/>
      <path id="Path_58617" data-name="Path 58617" d="M.945,2.691A3.6,3.6,0,0,1,.007.619C-.031.292.091.054.355.008S.837.127.893.454A2.629,2.629,0,0,0,1.35,1.725a2.128,2.128,0,0,0,1.423.906c.139.031.282.039.421.071a.447.447,0,0,1,.385.53.456.456,0,0,1-.546.364,3.5,3.5,0,0,1-1.988-.838.81.81,0,0,0-.1-.068" transform="translate(3.934 23.738)" fill="#010304"/>
      <path id="Path_58618" data-name="Path 58618" d="M14.685,7.989c-.4.4-.785.823-1.2,1.209a1.659,1.659,0,0,1-1.894.295L8.416,8.178.273,4.806C.19,4.771.111,4.728,0,4.675L4.075,0a.394.394,0,0,1,.113.039Q5.56,1.068,6.93,2.1q3.241,2.432,6.481,4.866a7.376,7.376,0,0,1,1.275,1.023" transform="translate(12.602 19.96)" fill="#f9efff"/>
      <path id="Path_58619" data-name="Path 58619" d="M10.61,8.475A7.376,7.376,0,0,0,9.336,7.452Q6.1,5.009,2.855,2.586,1.483,1.557.113.525A.394.394,0,0,0,0,.486C.466-.131.466-.131,1.07.32l9.5,7.088c.5.375.515.655.045,1.068" transform="translate(16.676 19.474)" fill="#ebc9ff"/>
      <path id="Path_58620" data-name="Path 58620" d="M0,.529A.889.889,0,0,1,.857.016c.272.112.54.235.816.336.18.066.165.131.045.247-.242.232-.477.471-.712.71-.09.092-.172.136-.281.025C.512,1.116.294.9.079.687A.194.194,0,0,1,0,.529" transform="translate(19.113 28.672)" fill="#fddf7c"/>
      <path id="Path_58621" data-name="Path 58621" d="M.844,1.261a.506.506,0,0,1-.1-.061Q.4.859.058.514A.155.155,0,0,1,.017.323.529.529,0,0,1,.72.045c.271.113.542.224.812.339.076.032.165.072.068.171-.22.224-.444.444-.667.664a.336.336,0,0,1-.088.042" transform="translate(14.965 26.868)" fill="#fddf7c"/>
    </g>
  </g>
</svg>
