<svg id="Group_5343" data-name="Group 5343" xmlns="http://www.w3.org/2000/svg" xmlns:xlink="http://www.w3.org/1999/xlink" width="42.096" height="31.572" viewBox="0 0 42.096 31.572">
  <defs>
    <clipPath id="clip-path">
      <rect id="Rectangle_587" data-name="Rectangle 587" width="42.096" height="31.572" fill="none"/>
    </clipPath>
  </defs>
  <g id="Group_5343-2" data-name="Group 5343" clip-path="url(#clip-path)">
    <path id="Path_58646" data-name="Path 58646" d="M42.1,113.867a3.582,3.582,0,0,0-.551,1.207c-.674,1.987-1.637,2.426-3.567,2.421-11.444-.029-22.887-.014-34.331-.014a2.687,2.687,0,0,1-2.937-1.994c-.208-.52-.429-1.035-.628-1.558-.226-.594.031-.966.666-.977q.534-.01,1.069,0c.138,0,.24-.02.281-.168a4.892,4.892,0,0,1,1.264-1.941c.165-.183.324-.372.487-.557.353-.4.779-.705.355-1.393a1.154,1.154,0,0,1,.466-1.482,10.939,10.939,0,0,1,4.365-2.18c.315-.074.56-.153.663-.532a1.284,1.284,0,0,1,.85-.775,10.7,10.7,0,0,1,6.912-.521,1.892,1.892,0,0,0,.2.025c-.067-.882-.134-1.752-.2-2.622-.071-.942-.163-1.884-.207-2.828a1.928,1.928,0,0,1,2.09-2.179q7.627-.011,15.254,0a1.954,1.954,0,0,1,2.091,2.3c-.017.2-.023.407-.037.664a4.155,4.155,0,0,1,1.835-.291,3.9,3.9,0,0,1,3.43,2.751c.05.16.044.345.179.474v2.714c-.169.125-.165.332-.22.5a3.913,3.913,0,0,1-3.987,2.65,4.53,4.53,0,0,1-1.872-.626c-.06.775-.094,1.51-.179,2.239-.148,1.27.056,2.617-.856,3.775h.478c1.916,0,3.832.008,5.747-.007a.915.915,0,0,1,.888.43Zm-26.647,2.362c.109.006.218.016.327.016h22.8a2.673,2.673,0,0,0,.287-.007,1.348,1.348,0,0,0,1.068-.6,8.758,8.758,0,0,0,.624-1.451h-.5q-3.78,0-7.56,0c-.587,0-.758-.13-.872-.644a.673.673,0,0,1,.749-.6,1.89,1.89,0,0,0,1.573-.724,1.81,1.81,0,0,0,.5-1.216q.5-6.446.991-12.893c.065-.849-.154-1.08-1.012-1.081H24.825c-.136,0-.272.013-.408.021-1.726-.007-3.452-.026-5.178-.014-.55,0-.793.307-.752.9.133,1.913.286,3.825.422,5.738a.359.359,0,0,0,.244.331,1.28,1.28,0,0,1,.736.833.4.4,0,0,0,.391.339,3.28,3.28,0,0,1,.437.109,11.834,11.834,0,0,1,4.107,2.074,1.421,1.421,0,0,1,.323,1.977.287.287,0,0,0,.04.392c.523.579,1.036,1.166,1.553,1.75a4.28,4.28,0,0,1,.684,1.288c.049.178.159.187.3.186.559,0,1.119.015,1.677-.007a.73.73,0,0,1,.843.592c-.169.545-.313.647-.924.648H16.389c-.588,0-1.176.009-1.765.014-.068,0-.136-.014-.2-.014H1.854c-.095,0-.189.008-.329.014.123.311.235.6.35.887a1.513,1.513,0,0,0,1.707,1.159q4.867,0,9.733,0c.711,0,1.423-.011,2.134-.016m-5.019-7.636c.554,0,.76.152.82.635.139,1.113.284,2.225.4,3.341.03.291.1.392.408.389,1.807-.016,3.615-.009,5.422-.007.2,0,.348.023.382-.269.278-2.4.575-4.808.872-7.21.028-.23-.056-.335-.27-.425a9.484,9.484,0,0,0-6.695-.272c-1.033.324-1.026.346-.874,1.414.078.55-.07.766-.623.911-.267-.067-.509-.191-.554-.481-.041-.262-.155-.26-.362-.208a10.288,10.288,0,0,0-3.8,1.865c-.217.167-.209.3-.069.511Q6.8,110.745,8.1,112.716a.476.476,0,0,0,.47.239c.493-.013.988-.027,1.479,0,.345.022.412-.1.368-.414-.14-1.017-.253-2.037-.387-3.055a.759.759,0,0,1,.4-.9m30.428-5.583a6.369,6.369,0,0,0-.05-1.145,2.67,2.67,0,0,0-4.01-1.79c-.147.094-.281.178-.3.4-.1,1.556-.224,3.111-.347,4.666a.493.493,0,0,0,.163.43,2.676,2.676,0,0,0,3.873-.14,3.18,3.18,0,0,0,.667-2.422m-20.693,9.94c.287,0,.575-.009.862,0a.372.372,0,0,0,.365-.2q1.324-2,2.664-3.99a.3.3,0,0,0-.073-.479,10.194,10.194,0,0,0-3.832-1.884c-.2-.049-.3-.034-.331.2q-.357,3.055-.731,6.108c-.023.188.034.242.213.237.287-.009.575,0,.862,0m-13.4-.019L5.313,110.75c-.127-.192-.2-.033-.27.049q-.586.661-1.164,1.328a2.167,2.167,0,0,0-.5.806Zm19.39.009a1.588,1.588,0,0,0-.317-.576q-.559-.656-1.125-1.305c-.4-.461-.4-.46-.74.05l-1.221,1.831Z" transform="translate(0 -85.922)" fill="#040303"/>
    <path id="Path_58647" data-name="Path 58647" d="M249.274,7.683a1.674,1.674,0,0,1,.358-.954,3.833,3.833,0,0,1,.408-.46c.73-.733.731-.929-.012-1.667a1.989,1.989,0,0,1,.023-3.179,1.515,1.515,0,0,0,.566-.962.526.526,0,0,1,.59-.463.559.559,0,0,1,.574.488,1.623,1.623,0,0,1-.329,1.232,2.548,2.548,0,0,1-.407.46c-.733.66-.74,1.028.015,1.7a2.263,2.263,0,0,1,.512.637,1.943,1.943,0,0,1-.392,2.367,2.043,2.043,0,0,0-.749,1.178c-.04.319-.344.451-.668.389-.372-.071-.5-.336-.49-.766" transform="translate(-223.563 0.001)" fill="#050505"/>
    <path id="Path_58648" data-name="Path 58648" d="M281.941,7.043a3.679,3.679,0,0,1-.465,1.4.574.574,0,0,0,0,.636,4.5,4.5,0,0,1,.121,3.959c-.187.443-.514.6-.87.449a.631.631,0,0,1-.272-.908,3.334,3.334,0,0,0-.325-3.349.732.732,0,0,1,0-.941,3.552,3.552,0,0,0,.591-1.383.587.587,0,0,1,.681-.513.6.6,0,0,1,.539.65" transform="translate(-251.111 -5.728)" fill="#050505"/>
    <path id="Path_58649" data-name="Path 58649" d="M225.235,13.4c-.037.29-.083.559-.1.831a3.293,3.293,0,0,0,.6,2.166c.283.415.23.8-.1,1-.315.2-.643.073-.925-.331a4.576,4.576,0,0,1-.695-3.711c.087-.415.367-.648.7-.6a.6.6,0,0,1,.529.646" transform="translate(-200.813 -11.433)" fill="#050505"/>
    <path id="Path_58650" data-name="Path 58650" d="M236.767,107.829c.136-.007.272-.021.408-.021h9.611c.858,0,1.077.231,1.012,1.08q-.494,6.447-.991,12.893a1.809,1.809,0,0,1-.5,1.216c-1.514,0-3.028-.006-4.543.005a5.656,5.656,0,0,1-1.481-.233c-.43-.112-.75-.444-1.188-.515-.517-.584-1.03-1.171-1.553-1.75a.287.287,0,0,1-.04-.392,1.421,1.421,0,0,0-.323-1.977,21.877,21.877,0,0,1-.144-2.734c-.084-1.237-.139-2.479-.168-3.719-.031-1.284-.165-2.566-.1-3.853" transform="translate(-212.351 -96.698)" fill="#d48eff"/>
    <path id="Path_58651" data-name="Path 58651" d="M99.623,181.083c.554-.145.7-.361.623-.911-.152-1.068-.159-1.09.874-1.414a9.484,9.484,0,0,1,6.695.272c.214.09.3.2.27.425-.3,2.4-.594,4.805-.872,7.21-.034.292-.186.269-.382.269-1.807,0-3.615-.009-5.422.007-.31,0-.379-.1-.408-.389-.113-1.116-.259-2.228-.4-3.341-.06-.483-.266-.637-.82-.635-.028-.5-.184-.987-.162-1.493" transform="translate(-89.355 -159.906)" fill="#fddf7c"/>
    <path id="Path_58652" data-name="Path 58652" d="M141.914,268.645c.588,0,1.176-.014,1.765-.014h12.935c.611,0,.755-.1.924-.647l1.381,0c.113.514.285.644.872.645q3.78,0,7.56,0h.5a8.759,8.759,0,0,1-.624,1.451,1.348,1.348,0,0,1-1.069.6,2.634,2.634,0,0,1-.287.007h-22.8c-.109,0-.218-.01-.327-.016-.064-.116-.13-.231-.191-.349a5.793,5.793,0,0,1-.634-1.68" transform="translate(-127.29 -240.368)" fill="#a54cdc"/>
    <path id="Path_58653" data-name="Path 58653" d="M185.287,107.863c-.07,1.286.065,2.569.1,3.853.03,1.24.085,2.482.168,3.719a21.886,21.886,0,0,0,.144,2.734,11.833,11.833,0,0,0-4.107-2.074,3.281,3.281,0,0,0-.437-.109.4.4,0,0,1-.391-.339,1.28,1.28,0,0,0-.736-.834.359.359,0,0,1-.244-.331c-.136-1.913-.289-3.825-.422-5.738-.041-.589.2-.893.752-.9,1.726-.011,3.452.007,5.178.014" transform="translate(-160.871 -96.732)" fill="#a54cdc"/>
    <path id="Path_58654" data-name="Path 58654" d="M27.892,274.282a5.794,5.794,0,0,0,.634,1.68c.061.118.127.233.191.349-.711.006-1.423.016-2.134.016q-4.866,0-9.733,0a1.513,1.513,0,0,1-1.707-1.159c-.114-.288-.227-.576-.35-.887.14-.006.235-.014.329-.014H27.688c.068,0,.136.009.2.014" transform="translate(-13.268 -246.004)" fill="#6d14a5"/>
    <path id="Path_58655" data-name="Path 58655" d="M57.112,199.279c-.022.506.134.993.162,1.493a.759.759,0,0,0-.4.9c.134,1.018.247,2.038.387,3.055.043.316-.024.436-.368.414-.491-.031-.986-.017-1.479,0a.476.476,0,0,1-.47-.239q-1.3-1.972-2.618-3.928c-.14-.208-.148-.345.069-.511a10.287,10.287,0,0,1,3.8-1.865c.207-.052.321-.054.362.208.045.289.287.414.554.481" transform="translate(-46.844 -178.102)" fill="#fcce63"/>
    <path id="Path_58656" data-name="Path 58656" d="M186.283,205.123c-.287,0-.575-.007-.862,0-.179.006-.236-.048-.213-.237q.374-3.053.731-6.108c.028-.236.135-.251.331-.2a10.194,10.194,0,0,1,3.832,1.883.3.3,0,0,1,.073.479q-1.341,1.989-2.664,3.99a.372.372,0,0,1-.365.2c-.287-.013-.575,0-.862,0" transform="translate(-166.118 -178.095)" fill="#fbce63"/>
    <path id="Path_58657" data-name="Path 58657" d="M264.383,250.064l-1.382,0a.73.73,0,0,0-.843-.592c-.558.022-1.118,0-1.677.007-.146,0-.256-.008-.3-.186a4.283,4.283,0,0,0-.684-1.288c.438.071.759.4,1.188.515a5.656,5.656,0,0,0,1.481.233c1.514-.011,3.028,0,4.543-.005a1.891,1.891,0,0,1-1.574.724.673.673,0,0,0-.749.595" transform="translate(-232.754 -222.447)" fill="#a54cdc"/>
    <path id="Path_58658" data-name="Path 58658" d="M36.137,242.321H32.748a2.166,2.166,0,0,1,.5-.806q.578-.668,1.164-1.328c.072-.081.142-.24.27-.049l1.451,2.182" transform="translate(-29.373 -215.312)" fill="#f8bd4e"/>
    <path id="Path_58659" data-name="Path 58659" d="M224.194,242.862h-3.4l1.221-1.831c.34-.51.34-.511.74-.05q.564.651,1.125,1.305a1.588,1.588,0,0,1,.317.576" transform="translate(-198.04 -215.844)" fill="#f7bd4e"/>
  </g>
</svg>
