<svg xmlns="http://www.w3.org/2000/svg" xmlns:xlink="http://www.w3.org/1999/xlink" width="38.651" height="34.121" viewBox="0 0 38.651 34.121">
  <defs>
    <clipPath id="clip-path">
      <rect id="Rectangle_586" data-name="Rectangle 586" width="38.651" height="34.121" fill="none"/>
    </clipPath>
  </defs>
  <g id="Group_5340" data-name="Group 5340" transform="translate(19.534 30.713)">
    <g id="Group_5339" data-name="Group 5339" transform="translate(-19.534 -30.713)" clip-path="url(#clip-path)">
      <path id="Path_58622" data-name="Path 58622" d="M38.651,60.152a.859.859,0,0,1-.8.374q-18.523-.01-37.046-.007a1.424,1.424,0,0,1-.374-.027.558.558,0,0,1,.083-1.1,3.393,3.393,0,0,1,.565,0c.2.016.257-.067.254-.26q-.014-1.056,0-2.112a.3.3,0,0,0-.219-.333A1.669,1.669,0,0,1,0,54.985C0,53.791.008,52.6,0,51.4A1.686,1.686,0,0,1,1.13,49.67c.188-.074.2-.179.206-.341a7.441,7.441,0,0,1,.08-1.578,3.512,3.512,0,0,1,2.049-2.536.455.455,0,0,0,.307-.507c-.009-1.132,0-2.263-.008-3.395a.621.621,0,0,1,.55-.721c.457.111.585.264.587.729,0,.843-.006,1.685,0,2.528,0,.335-.153.794.072.972s.651.035.989.06c.248.018.32-.066.317-.314-.012-1.195-.007-2.389,0-3.584A2.329,2.329,0,0,1,8.76,38.5q3.6-.007,7.207,0a2.312,2.312,0,0,1,2.458,2.456c0,1.207.006,2.415,0,3.622,0,.227.054.311.292.3.4-.018.805-.019,1.207,0,.247.012.318-.066.316-.314-.013-1.169.039-2.341-.017-3.508a2.411,2.411,0,0,1,2.559-2.566c2.288.037,4.578.014,6.867.006a3.792,3.792,0,0,1,1.44.23,2.487,2.487,0,0,1,1.3,2.412c-.026.892-.015,1.785,0,2.678.005.345-.166.815.078,1,.226.172.674.043,1.023.066.22.014.275-.071.275-.281-.007-2.741,0-5.482-.013-8.222a2.066,2.066,0,0,0-1.671-1.971,8.1,8.1,0,0,0-1.8-.045.44.44,0,0,0-.074-.012q-8.414,0-16.829-.009a.343.343,0,0,0-.35.215c-.183.357-.372.713-.577,1.058a.826.826,0,0,1-1.49-.009c-.2-.346-.394-.7-.58-1.056a.313.313,0,0,0-.314-.207c-1.031.01-2.064-.021-3.094.016A2.1,2.1,0,0,0,4.9,36.525c-.006.616,0,1.232,0,1.849,0,.466-.128.617-.586.73a.6.6,0,0,1-.549-.685c.016-.792-.05-1.592.039-2.375a3.231,3.231,0,0,1,3.177-2.823c.486-.017.973,0,1.469,0-.2-.739-.116-1.049.557-1.334a3.481,3.481,0,0,0,1.9-1.951.8.8,0,0,1,1.071-.508.73.73,0,0,1,.465.414,3.678,3.678,0,0,0,2.117,2.14c.5.212.577.584.375,1.235h.437q8.02,0,16.04,0a3.3,3.3,0,0,1,3.345,2.351,3.806,3.806,0,0,1,.133,1.118c0,2.654,0,5.309-.006,7.963a.541.541,0,0,0,.354.591,3.508,3.508,0,0,1,2.074,3.089,2.467,2.467,0,0,1,.008.415c-.051.507-.015.915.583,1.137.433.161.6.638.75,1.064v4.6a2.105,2.105,0,0,1-1.242,1.2c-.154.044-.085.191-.085.29-.006.663.013,1.326-.01,1.988-.011.3.08.4.374.366.381-.04.757-.031.964.383ZM12.614,32.215c-.481-.315-.566-.917-.976-1.377a2.668,2.668,0,0,1-1.832,1.85c.47.377,1.066.473,1.382.967l.535,1.02a2.783,2.783,0,0,1,1.921-1.933l-1.03-.528M35.176,59.372c.249.005.5,0,.747.019.227.019.272-.083.267-.283-.011-.461,0-.923,0-1.385,0-.983,0-.983-1.007-.9-.387-.007-.774-.007-1.161-.023-.172-.007-.208.065-.207.22.006.713.008,1.426,0,2.139,0,.186.067.234.24.227.374-.015.75-.013,1.124-.018M3.853,56.828c-.386-.007-.773-.006-1.159-.024-.187-.008-.231.068-.229.239.007.7.009,1.4,0,2.1,0,.2.072.257.262.248.374-.016.749-.014,1.123-.019.25.005.5,0,.748.019.21.017.249-.077.245-.262-.01-.475,0-.95,0-1.425,0-.965,0-.965-.987-.876m11.62-11.971c.514.008,1.029,0,1.542.03.252.013.284-.091.282-.306-.009-1.244,0-2.489-.006-3.733a1.164,1.164,0,0,0-1.141-1.207c-.35-.019-.7.006-1.054.011-2.172,0-4.345-.021-6.517-.007A1.164,1.164,0,0,0,7.414,40.9c-.006,1.206.011,2.411-.01,3.617-.006.319.108.364.386.363,1.808-.011,3.617,0,5.426-.007.753,0,1.505-.014,2.258-.021m13.965,0c.526.008,1.053.011,1.579.028.189.006.23-.077.229-.248-.006-1.281.009-2.562-.01-3.843a1.155,1.155,0,0,0-1.122-1.15c-.349-.023-.7.005-1.052.01-2.188,0-4.376-.023-6.563-.007a1.14,1.14,0,0,0-1.134,1.209c-.006,1.232.006,2.465-.008,3.7,0,.265.07.336.333.332,1.169-.015,2.339,0,3.509-.011a.65.65,0,0,1,.754.563c-.153.49-.279.576-.862.576H5.318c-.164,0-.327,0-.49.008a2.478,2.478,0,0,0-2.272,1.836,7.182,7.182,0,0,0-.095,1.273c-.037.372.094.449.453.448q14.98-.016,29.96-.009c.138,0,.276-.009.414-.015.89.006,1.781.008,2.671.021.188,0,.238-.074.232-.245-.015-.388.006-.78-.032-1.166a2.464,2.464,0,0,0-2.122-2.126,12.655,12.655,0,0,0-1.954-.006q-1.939-.01-3.878-.02c-.5,0-.637-.1-.785-.576a.642.642,0,0,1,.747-.563c.423.014.847-.01,1.27-.018m4.823,9.08c-.163-.006-.326-.017-.489-.017q-15.829,0-31.658,0c-.312,0-.721-.137-.91.056s-.048.62-.065.942a.792.792,0,0,0,.068.441c.169.31.46.313.753.313h8.188c.533,0,.639.081.779.569a.658.658,0,0,1-.76.565c-1.3-.007-2.591,0-3.886-.008-.249,0-.32.065-.313.313.017.641.02,1.283,0,1.924-.009.276.056.36.347.357,1.723-.015,3.446-.007,5.169-.007q10.414,0,20.827.006c.281,0,.395-.048.38-.362a14.963,14.963,0,0,1,0-1.772c.028-.4-.112-.461-.475-.46q-9.47.017-18.941.008c-.6,0-.717-.078-.872-.564.144-.5.244-.568.818-.568H33.7c.163,0,.326-.013.488-.02.928.069,1.858.036,2.787.017a.543.543,0,0,0,.551-.6c0-.314,0-.629,0-.943,0-.157-.049-.229-.215-.225-1.017.022-2.035-.038-3.052.032m.014-1.173c1.016.007,2.031.012,3.047.022.143,0,.2-.047.2-.2-.007-.451.014-.9-.011-1.355a.518.518,0,0,0-.567-.528c-.915,0-1.831.01-2.746.015-.138-.006-.276-.018-.414-.018H1.975c-.075,0-.151,0-.226,0a.558.558,0,0,0-.611.608c-.009.339.03.683-.01,1.018-.048.4.109.462.474.462q16.13-.015,32.26-.009c.138,0,.275-.013.413-.02" transform="translate(0 -26.405)" fill="#050403"/>
      <path id="Path_58623" data-name="Path 58623" d="M42.764,83.428c.459-.113.584-.264.587-.73,0-.616,0-1.233,0-1.849a2.1,2.1,0,0,1,2.059-2.165c1.03-.037,2.062-.007,3.094-.016a.313.313,0,0,1,.314.207c.186.356.376.71.58,1.056a.826.826,0,0,0,1.49.009c.205-.345.394-.7.577-1.058a.343.343,0,0,1,.35-.215q8.414.009,16.829.009a.45.45,0,0,1,.074.013c.009.112.1.169.161.244a2.712,2.712,0,0,1,.683,1.345A21.5,21.5,0,0,1,69.62,82.9c0,.051-.057.1-.087.155a3.794,3.794,0,0,0-1.44-.229c-2.289.008-4.578.031-6.867-.006a2.411,2.411,0,0,0-2.559,2.566c.056,1.167,0,2.339.017,3.508,0,.248-.069.326-.316.314-.4-.019-.805-.019-1.207,0-.238.011-.294-.073-.292-.3.011-1.207.007-2.415,0-3.622a2.312,2.312,0,0,0-2.458-2.456q-3.6-.008-7.207,0a2.329,2.329,0,0,0-2.481,2.48c0,1.195-.007,2.389,0,3.584,0,.248-.07.332-.318.313-.338-.025-.778.108-.989-.059s-.067-.637-.072-.972c-.011-.842,0-1.685,0-2.528,0-.465-.13-.618-.587-.729q0-.744,0-1.489" transform="translate(-38.45 -70.73)" fill="#a54cdc"/>
      <path id="Path_58624" data-name="Path 58624" d="M243.325,5.685a.723.723,0,0,1-.732-.437,3.092,3.092,0,0,0-1.66-1.672.8.8,0,0,1,0-1.457.206.206,0,0,1,.034-.017,2.851,2.851,0,0,0,1.6-1.578.8.8,0,0,1,1.5-.007,3.164,3.164,0,0,0,1.591,1.59.819.819,0,0,1,0,1.517.205.205,0,0,1-.034.015,2.644,2.644,0,0,0-1.539,1.533.749.749,0,0,1-.762.511m-.366-2.133a1.883,1.883,0,0,0,.425.656,1.981,1.981,0,0,1,1.334-1.347L244,2.494c-.335-.235-.423-.654-.727-1.023a1.934,1.934,0,0,1-1.3,1.356c.33.29.768.364.991.724" transform="translate(-216.213 -0.001)" fill="#050403"/>
      <path id="Path_58625" data-name="Path 58625" d="M150.95,5.334a.524.524,0,0,1-.492.542,2.261,2.261,0,0,1-.451.008c-.183-.014-.247.054-.236.235a1.832,1.832,0,0,1-.017.487.56.56,0,0,1-1.111-.072c0-.025,0-.05,0-.075-.022-.548-.022-.548-.574-.573a.57.57,0,0,1-.619-.562.58.58,0,0,1,.62-.57.835.835,0,0,1,.188,0c.31.052.442-.066.387-.383a.983.983,0,0,1,0-.226.537.537,0,0,1,.53-.565.56.56,0,0,1,.6.547c.02.2-.046.451.054.578s.376.027.572.051a.577.577,0,0,1,.555.577" transform="translate(-132.573 -3.219)" fill="#050403"/>
      <path id="Path_58626" data-name="Path 58626" d="M201.839,34.167a.526.526,0,0,1-.547.544c-.191,0-.246.059-.263.255a.56.56,0,1,1-1.12-.031c0-.162-.052-.221-.217-.22a.537.537,0,0,1-.6-.539c-.027-.323.187-.544.6-.582.2-.018.214-.1.22-.256a.511.511,0,0,1,.544-.546.519.519,0,0,1,.571.525c.017.2.058.269.272.281a.539.539,0,0,1,.541.568" transform="translate(-179.007 -29.485)" fill="#050403"/>
      <path id="Path_58627" data-name="Path 58627" d="M49.3,188.652c.148.472.281.573.785.576q1.939.012,3.878.02c.207.328.546.536.751.876a4.631,4.631,0,0,1,.453,2.646c-.138,0-.276.014-.414.014q-14.98,0-29.96.009c-.36,0-.49-.076-.453-.449a7.181,7.181,0,0,1,.095-1.273,2.478,2.478,0,0,1,2.272-1.836c.163-.009.327-.008.49-.008H46.968c.583,0,.709-.086.862-.576H49.3" transform="translate(-21.879 -169.621)" fill="#fddf7c"/>
      <path id="Path_58628" data-name="Path 58628" d="M44.248,242.921c-.138.007-.275.02-.413.02q-16.13,0-32.26.009c-.364,0-.521-.062-.474-.462.04-.335,0-.679.01-1.018a.557.557,0,0,1,.611-.608c.075,0,.151,0,.226,0H43.757c.138,0,.276.011.414.017a11.843,11.843,0,0,1,.078,2.041" transform="translate(-9.974 -216.563)" fill="#a54cdc"/>
      <path id="Path_58629" data-name="Path 58629" d="M22.176,274.658H20.7c-.14-.489-.246-.569-.779-.569q-4.094,0-8.188,0c-.293,0-.584,0-.753-.313a.792.792,0,0,1-.068-.44c.017-.322-.138-.735.065-.942s.6-.056.91-.056q15.829,0,31.659,0c.163,0,.326.011.489.017a5.738,5.738,0,0,1-.075,1.717c-.163.007-.326.02-.488.02H22.994c-.574,0-.673.071-.818.569" transform="translate(-9.773 -244.821)" fill="#b3abb4"/>
      <path id="Path_58630" data-name="Path 58630" d="M217.76,136.987h-1.469a.65.65,0,0,0-.754-.563c-1.17.015-2.339,0-3.509.012-.264,0-.337-.068-.334-.333.014-1.232,0-2.465.008-3.7a1.139,1.139,0,0,1,1.134-1.209c2.188-.016,4.376,0,6.563.006a2.783,2.783,0,0,1,.384,1.115c-.008,1.362-.006,2.725-.008,4.088-.423.007-.847.032-1.27.018a.642.642,0,0,0-.746.563" transform="translate(-190.339 -117.956)" fill="#fdfdfd"/>
      <path id="Path_58631" data-name="Path 58631" d="M81.454,136.4c-.753.007-1.505.02-2.258.021-1.809,0-3.617,0-5.426.006-.278,0-.391-.043-.386-.363.021-1.205,0-2.411.01-3.617a1.164,1.164,0,0,1,1.166-1.26c2.172-.014,4.345,0,6.517.008a2.165,2.165,0,0,1,.383,1q-.006,2.1-.007,4.207" transform="translate(-65.982 -117.952)" fill="#fdfdfd"/>
      <path id="Path_58632" data-name="Path 58632" d="M300.861,83.02c.03-.052.088-.1.086-.155a21.373,21.373,0,0,0-.056-2.617,2.711,2.711,0,0,0-.684-1.345c-.063-.076-.152-.133-.161-.244a8.1,8.1,0,0,1,1.8.045,2.067,2.067,0,0,1,1.671,1.971c.016,2.741.006,5.482.013,8.222,0,.21-.054.3-.275.281-.349-.022-.8.107-1.023-.066-.245-.186-.073-.657-.078-1-.014-.892-.026-1.786,0-2.678a2.488,2.488,0,0,0-1.3-2.412" transform="translate(-269.777 -70.697)" fill="#6d14a5"/>
      <path id="Path_58633" data-name="Path 58633" d="M319.235,197.77a4.631,4.631,0,0,0-.453-2.646c-.2-.341-.545-.548-.751-.876a12.615,12.615,0,0,1,1.954.007,2.465,2.465,0,0,1,2.122,2.126c.038.386.017.777.032,1.165.006.171-.044.248-.232.245-.89-.013-1.781-.015-2.671-.021" transform="translate(-285.948 -174.621)" fill="#d8a511"/>
      <path id="Path_58634" data-name="Path 58634" d="M150.022,136.352q0-2.1.007-4.207a2.162,2.162,0,0,0-.383-1c.351-.005.7-.031,1.053-.011a1.164,1.164,0,0,1,1.141,1.207c.007,1.245,0,2.489.006,3.733,0,.215-.03.32-.282.306-.514-.026-1.028-.022-1.542-.03" transform="translate(-134.55 -117.901)" fill="#e8e6e8"/>
      <path id="Path_58635" data-name="Path 58635" d="M288.452,136.357c0-1.363,0-2.725.008-4.088a2.785,2.785,0,0,0-.384-1.115c.351-.005.7-.033,1.053-.01a1.154,1.154,0,0,1,1.122,1.15c.02,1.281,0,2.562.01,3.843,0,.171-.04.254-.23.248-.526-.016-1.053-.019-1.579-.027" transform="translate(-259.015 -117.906)" fill="#eae7ea"/>
      <path id="Path_58636" data-name="Path 58636" d="M339.053,242.955a11.886,11.886,0,0,0-.077-2.041c.915-.006,1.83-.015,2.746-.016a.518.518,0,0,1,.567.528c.025.451,0,.9.01,1.355,0,.149-.056.2-.2.2-1.016-.01-2.031-.015-3.047-.022" transform="translate(-304.78 -216.597)" fill="#6d14a5"/>
      <path id="Path_58637" data-name="Path 58637" d="M338.872,274.307a5.76,5.76,0,0,0,.074-1.717c1.017-.07,2.035-.011,3.052-.032.166,0,.219.068.215.225-.007.314,0,.629,0,.944a.542.542,0,0,1-.551.6c-.928.019-1.859.052-2.787-.017" transform="translate(-304.687 -245.059)" fill="#887f88"/>
      <path id="Path_58638" data-name="Path 58638" d="M25.807,303.892c-.374.005-.749,0-1.123.019-.19.009-.265-.045-.262-.248.01-.7.008-1.4,0-2.1,0-.172.042-.248.229-.24.386.018.773.017,1.159.024l0,2.543" transform="translate(-21.958 -270.926)" fill="#e1dde1"/>
      <path id="Path_58639" data-name="Path 58639" d="M336.519,303.9c-.374,0-.75,0-1.124.018-.174.007-.244-.041-.241-.227.009-.713.008-1.426,0-2.139,0-.156.035-.227.207-.22.386.016.774.016,1.161.023q0,1.273,0,2.545" transform="translate(-301.344 -270.93)" fill="#e1dde1"/>
      <path id="Path_58640" data-name="Path 58640" d="M98.58,46.759c-.316-.494-.912-.591-1.382-.967a2.669,2.669,0,0,0,1.833-1.85c.41.459.495,1.062.976,1.377a2.813,2.813,0,0,0-1.427,1.44" transform="translate(-87.393 -39.509)" fill="#f9dc74"/>
      <path id="Path_58641" data-name="Path 58641" d="M38.153,303.787q0-1.271,0-2.543c.987-.089.987-.089.987.876,0,.475-.007.95,0,1.425,0,.184-.036.278-.245.261-.248-.02-.5-.014-.748-.02" transform="translate(-34.304 -270.821)" fill="#c8c1c9"/>
      <path id="Path_58642" data-name="Path 58642" d="M348.683,303.792q0-1.273,0-2.545c1.007-.087,1.007-.087,1.007.9,0,.462-.008.924,0,1.385,0,.2-.04.3-.267.283-.248-.021-.5-.014-.747-.019" transform="translate(-313.508 -270.825)" fill="#c8c1c9"/>
      <path id="Path_58643" data-name="Path 58643" d="M110.9,59.03a2.813,2.813,0,0,1,1.427-1.44l1.03.528a2.782,2.782,0,0,0-1.921,1.933l-.535-1.02" transform="translate(-99.71 -51.78)" fill="#f9cc59"/>
      <path id="Path_58644" data-name="Path 58644" d="M256.283,16.66c-.224-.36-.661-.435-.992-.724a1.935,1.935,0,0,0,1.3-1.356c.3.369.392.788.727,1.023a2.643,2.643,0,0,0-1.039,1.057" transform="translate(-229.537 -13.109)" fill="#f9dc74"/>
      <path id="Path_58645" data-name="Path 58645" d="M265.12,25.777a2.643,2.643,0,0,1,1.039-1.057l.72.367a1.981,1.981,0,0,0-1.334,1.347,1.884,1.884,0,0,1-.425-.656" transform="translate(-238.374 -22.226)" fill="#f9cc59"/>
    </g>
  </g>
</svg>
