<svg id="Group_359" data-name="Group 359" xmlns="http://www.w3.org/2000/svg" xmlns:xlink="http://www.w3.org/1999/xlink" width="84.1" height="80.17" viewBox="0 0 84.1 80.17">
  <defs>
    <filter id="Path_12830" x="0" y="0" width="84.1" height="80.17" filterUnits="userSpaceOnUse">
      <feOffset dx="5" dy="2" input="SourceAlpha"/>
      <feGaussianBlur result="blur"/>
      <feFlood/>
      <feComposite operator="in" in2="blur"/>
      <feComposite in="SourceGraphic"/>
    </filter>
  </defs>
  <g transform="matrix(1, 0, 0, 1, 0, 0)" filter="url(#Path_12830)">
    <g id="Path_12830-2" data-name="Path 12830" fill="#fff">
      <path d="M 39.55022811889648 77.16986083984375 C 34.34408187866211 77.16986083984375 29.2942943572998 76.16249084472656 24.54115104675293 74.17572784423828 C 19.95040512084961 72.25685119628906 15.82748413085938 69.50979614257812 12.28690624237061 66.01087188720703 C 8.747138977050781 62.51274871826172 5.968239307403564 58.43976974487305 4.027394771575928 53.90507125854492 C 2.018561363220215 49.2115478515625 1.000005841255188 44.22532653808594 1.000005841255188 39.08492660522461 C 1.000005841255188 33.94452667236328 2.018561363220215 28.95831489562988 4.027394771575928 24.2647819519043 C 5.968239307403564 19.73008155822754 8.747138977050781 15.6571044921875 12.28690624237061 12.1589937210083 C 15.82748413085938 8.660059928894043 19.95040512084961 5.913004398345947 24.54115104675293 3.994137763977051 C 29.2942943572998 2.007370948791504 34.34408187866211 1.000004410743713 39.55022811889648 1.000004410743713 C 44.75637435913086 1.000004410743713 49.80615997314453 2.007370948791504 54.55930709838867 3.994137763977051 C 59.15005111694336 5.913004398345947 63.27297210693359 8.660059928894043 66.81355285644531 12.1589937210083 C 70.35331726074219 15.6571044921875 73.13221740722656 19.73008155822754 75.07307434082031 24.2647819519043 C 77.0819091796875 28.95831489562988 78.1004638671875 33.94452667236328 78.1004638671875 39.08492660522461 C 78.1004638671875 44.22532653808594 77.0819091796875 49.2115478515625 75.07307434082031 53.90507125854492 C 73.13221740722656 58.43976974487305 70.35331726074219 62.51274871826172 66.81355285644531 66.01087188720703 C 63.27297210693359 69.50979614257812 59.15005111694336 72.25685119628906 54.55930709838867 74.17572784423828 C 49.80615997314453 76.16249084472656 44.75637435913086 77.16986083984375 39.55022811889648 77.16986083984375 Z" stroke="none"/>
      <path d="M 39.55022811889648 2 C 34.47718048095703 2 29.55714416503906 2.981338500976562 24.92680358886719 4.916770935058594 C 20.45493316650391 6.785964965820312 16.43875885009766 9.461906433105469 12.98981475830078 12.87026977539062 C 9.542510986328125 16.27700805664062 6.836418151855469 20.24306869506836 4.946723937988281 24.65825653076172 C 2.991416931152344 29.22672653198242 1.999992370605469 34.08056259155273 1.999992370605469 39.08492660522461 C 1.999992370605469 44.08929061889648 2.991416931152344 48.9431266784668 4.946723937988281 53.5115966796875 C 6.836418151855469 57.92678451538086 9.542510986328125 61.89284515380859 12.98981475830078 65.29958343505859 C 16.43875885009766 68.70794677734375 20.45493316650391 71.38388824462891 24.92680358886719 73.25308227539062 C 29.55714416503906 75.18851470947266 34.47718048095703 76.16985321044922 39.55022811889648 76.16985321044922 C 44.62327575683594 76.16985321044922 49.54331207275391 75.18851470947266 54.17365264892578 73.25308227539062 C 58.64552307128906 71.38388824462891 62.66169738769531 68.70794677734375 66.11064147949219 65.29958343505859 C 69.55794525146484 61.89284515380859 72.26403045654297 57.92678451538086 74.15373229980469 53.5115966796875 C 76.10903167724609 48.9431266784668 77.10044860839844 44.08929061889648 77.10044860839844 39.08492660522461 C 77.10044860839844 34.08056259155273 76.10903167724609 29.22672653198242 74.15373229980469 24.65825653076172 C 72.26403045654297 20.24306869506836 69.55794525146484 16.27700805664062 66.11064147949219 12.87026977539062 C 62.66169738769531 9.461906433105469 58.64552307128906 6.785964965820312 54.17365264892578 4.916770935058594 C 49.54331207275391 2.981338500976562 44.62327575683594 2 39.55022811889648 2 M 39.55022811889648 0 C 61.39321899414062 0 79.10044860839844 17.49891662597656 79.10044860839844 39.08492660522461 C 79.10044860839844 60.67093658447266 61.39321899414062 78.16985321044922 39.55022811889648 78.16985321044922 C 17.70724105834961 78.16985321044922 -7.62939453125e-06 60.67093658447266 -7.62939453125e-06 39.08492660522461 C -7.62939453125e-06 17.49891662597656 17.70724105834961 0 39.55022811889648 0 Z" stroke="none" fill="#000"/>
    </g>
  </g>
  <g id="Group_356" data-name="Group 356" transform="translate(26.27 25.609)">
    <g id="Group_357" data-name="Group 357" transform="translate(0)">
      <path id="Path_12829" data-name="Path 12829" d="M13.013,15.716h.878c6.806,0,8.7.006,15.5,0a2.249,2.249,0,1,0,.069-4.488c-3.04-.006-1.167,0-4.208,0H13.012c.25-.272.4-.442.553-.6q3.372-3.376,6.743-6.751a2.212,2.212,0,0,0,.5-2.576A2.119,2.119,0,0,0,18.6.027a2.779,2.779,0,0,0-1.416.665Q11.561,6.234,6.006,11.843a2.185,2.185,0,0,0,0,3.252q5.567,5.6,11.164,11.162a2.238,2.238,0,1,0,3.137-3.192c-2.239-2.259-4.5-4.5-6.743-6.752-.157-.158-.3-.327-.552-.6" transform="translate(-5.281 -0.001)"/>
    </g>
  </g>
</svg>
