<svg xmlns="http://www.w3.org/2000/svg" width="17.434" height="16.706" viewBox="0 0 17.434 16.706">
  <g id="Group_473" data-name="Group 473" transform="translate(0 0)">
    <g id="Group_4977" data-name="Group 4977">
      <path id="Path_13191" data-name="Path 13191" d="M0,6.4c.043-.09.081-.183.131-.269a.86.86,0,0,1,.683-.449c.852-.083,1.7-.159,2.557-.237.791-.072,1.581-.145,2.372-.213a.2.2,0,0,0,.191-.153q.948-2.233,1.9-4.462A.929.929,0,0,1,9.332.239,1.1,1.1,0,0,1,9.6.645q.946,2.215,1.89,4.431a.23.23,0,0,0,.22.163q1.788.155,3.575.317c.435.039.869.08,1.3.126A.925.925,0,0,1,17.1,7.31c-.735.65-1.474,1.3-2.212,1.943-.49.43-.979.862-1.474,1.287a.2.2,0,0,0-.072.23c.36,1.572.713,3.147,1.073,4.719a.935.935,0,0,1-1.433,1.04c-1.369-.822-2.741-1.637-4.108-2.461a.264.264,0,0,0-.317,0Q6.5,15.312,4.432,16.542a.925.925,0,0,1-1.416-.5,1.024,1.024,0,0,1,0-.537c.358-1.573.713-3.147,1.075-4.719A.225.225,0,0,0,4,10.529C2.816,9.492,1.634,8.448.443,7.415A1.727,1.727,0,0,1,0,6.812V6.4m13.233,9,.033.015,0-.041c-.338-1.5-.673-3.005-1.017-4.506a.988.988,0,0,1,.341-1.049c.844-.732,1.682-1.472,2.521-2.209l.965-.849c-.028-.051-.065-.043-.1-.046-1.5-.137-3-.278-4.506-.406a1,1,0,0,1-.919-.661C9.971,4.276,9.383,2.909,8.8,1.541c-.023-.053-.03-.118-.1-.157-.031.069-.06.13-.086.192Q7.746,3.612,6.877,5.651a.968.968,0,0,1-.854.651q-2.109.189-4.218.382c-.148.013-.3.031-.474.049.065.06.1.094.138.128Q3.164,8.348,4.86,9.833a.96.96,0,0,1,.329,1.007q-.464,2.037-.926,4.075c-.038.166-.072.332-.113.527l.175-.1c1.269-.759,2.54-1.513,3.8-2.279a1.026,1.026,0,0,1,1.163,0c.754.461,1.515.91,2.274,1.362.554.33,1.111.657,1.666.986" transform="translate(0 0)" fill="#020201"/>
      <path id="Path_13192" data-name="Path 13192" d="M11.9,14.017c-.555-.328-1.112-.656-1.666-.986-.759-.452-1.52-.9-2.274-1.362a1.026,1.026,0,0,0-1.163,0c-1.264.766-2.536,1.52-3.8,2.279l-.175.1c.042-.194.076-.361.113-.527q.462-2.037.926-4.074A.96.96,0,0,0,3.529,8.45Q1.831,6.967.138,5.477C.1,5.444.064,5.409,0,5.349c.179-.019.326-.036.474-.049q2.109-.192,4.218-.382a.968.968,0,0,0,.854-.651Q6.41,2.227,7.285.192C7.312.13,7.34.069,7.371,0c.066.039.073.1.1.157C8.053,1.526,8.641,2.893,9.22,4.264a1,1,0,0,0,.919.661c1.5.128,3,.269,4.506.406.032,0,.07,0,.1.046l-.965.849c-.84.737-1.677,1.477-2.521,2.209a.987.987,0,0,0-.341,1.049c.344,1.5.679,3,1.017,4.506l-.03.026" transform="translate(1.331 1.383)" fill="#fdc007"/>
      <path id="Path_13193" data-name="Path 13193" d="M.03,0l0,.041L0,.026.03,0" transform="translate(13.233 15.374)" fill="#fdc007"/>
    </g>
  </g>
</svg>
