<svg id="Group_5349" data-name="Group 5349" xmlns="http://www.w3.org/2000/svg" xmlns:xlink="http://www.w3.org/1999/xlink" width="30.611" height="29.428" viewBox="0 0 30.611 29.428">
  <defs>
    <clipPath id="clip-path">
      <rect id="Rectangle_589" data-name="Rectangle 589" width="30.611" height="29.428" fill="none"/>
    </clipPath>
  </defs>
  <g id="Group_5348" data-name="Group 5348" clip-path="url(#clip-path)">
    <path id="Path_58681" data-name="Path 58681" d="M77.185,182.429a11.326,11.326,0,0,1-1.631.334c-.5.111-.863.318-1.362.423-.436.092-.633-.022-.639.423s-.052.69-.047,1.137c0,.367.091,1.145.606,1.133.924-.022,2.051.008,2.975.014,0,.9.1,2.093.1,3a2.458,2.458,0,0,1-.982.136c-5.5,0-11-.13-16.5-.118a3.1,3.1,0,0,1-1.4-.212,2.174,2.174,0,0,1-.927-1.975c0-.229,0-.458-.012-.686-.006-.133.044-.169.173-.165.278.01.558,0,.836.006.321.012.465-.121.537-.439h1.233c.034.281.521.182.815.181.279,0,.247.115.525.123.784.022,1.013-.518,1.04-1.215a4.847,4.847,0,0,0-.081-1.047.765.765,0,0,0-.638-.666c-1-.2-2.05-.044-3.059-.211-.439-.073-.756-.6-1.213-.557-.1.009-.272-.163-.272-.264,0-.714.105-1.489.105-2.251.257.176.653.12.885.244a4.655,4.655,0,0,0,1.614.467,11.363,11.363,0,0,0,1.72.113c.343.007.78.6,1.12.317.038-.032.082.038.121.065a.464.464,0,0,0,.263.108c.246,0,.493.043.733.045.5,0,.983.1,1.479.076.619-.033,1.233.1,1.854.06s1.269,0,1.9-.014c1.216-.02,2.435-.068,3.645-.182.794-.075,1.6-.1,2.383-.229.6-.1,1.459-.213,2.052-.361,0,.577.051,1.613.052,2.189m-9.314,2.547q1.761,0,3.522,0c.114,0,.234.029.334-.073a.452.452,0,0,0-.315-.823q-1.9,0-3.79,0H64.428c-.21,0-.415.015-.513.245a.44.44,0,0,0,.434.651c1.174,0,2.348,0,3.522,0m.031,1.659c1.184,0,2.367,0,3.551,0a.438.438,0,0,0,.472-.418.461.461,0,0,0-.453-.474c-.208-.011-.418,0-.626,0H64.519c-.432,0-.677.165-.665.445.014.322.2.452.646.452h3.4m-.011-3.3h.537c.985,0,1.97,0,2.955,0,.375,0,.547-.155.542-.466,0-.291-.173-.428-.543-.429q-3.462,0-6.924,0a1.129,1.129,0,0,0-.149.006.448.448,0,1,0,.061.891h3.522" transform="translate(-52.682 -165.188)" fill="#d48eff"/>
    <path id="Path_58682" data-name="Path 58682" d="M59.858,223.042H58.582c-.184-.441-.26-.493-.732-.494-.238,0-.477-.014-.713,0s-.3-.091-.3-.3c0-.609.008-1.218,0-1.827,0-.2.059-.309.279-.268l1.583.29c.869.16,1.738.328,2.609.476.207.035.314.11.311.322,0,.331,0,.663,0,.994,0,.225-.1.323-.336.31-.28-.015-.562-.009-.843,0-.387.009-.5.108-.582.493" transform="translate(-52.296 -202.562)" fill="#fbd307"/>
    <path id="Path_58683" data-name="Path 58683" d="M76.2,38.908a.544.544,0,0,0,.618.449c.671-.006,1.343.011,2.014.019,0,2.45.007,4.9,0,7.35a2.147,2.147,0,0,1-1.653,2.049,20.185,20.185,0,0,1-2.121.253c-1.135.118-2.273.185-3.41.211-1.771.04-3.543.034-5.313-.05-.583-.027-1.166-.063-1.746-.125-.972-.1-1.941-.242-2.913-.351a3.1,3.1,0,0,1-2.18-1.02.276.276,0,0,0-.194-.126c0-.787.01-1.573.011-2.36,0-1.852,0-3.705,0-5.557,0-.234.06-.3.3-.3,1.085.012,2.171,0,3.257.008a.548.548,0,0,0,.623-.45h1.176a3.944,3.944,0,0,0,.027.684,1.013,1.013,0,0,0,1.1.768q2.421-.005,4.841,0c1.126,0,2.251-.009,3.377,0a.958.958,0,0,0,1.007-1.008,3.61,3.61,0,0,1,.007-.447Z" transform="translate(-54.567 -35.8)" fill="#fff"/>
    <path id="Path_58684" data-name="Path 58684" d="M59.1,52.665a.276.276,0,0,1,.194.126,3.1,3.1,0,0,0,2.18,1.02c.972.109,1.941.246,2.913.351.58.062,1.163.1,1.746.125,1.77.083,3.542.09,5.313.049,1.138-.026,2.275-.093,3.41-.211a20.191,20.191,0,0,0,2.121-.253,2.147,2.147,0,0,0,1.653-2.049c.007-2.45,0-4.9,0-7.35.476-.048.954-.011,1.431-.021.133,0,.178.058.169.181,0,.06,0,.119,0,.179q0,4.019,0,8.038a2.367,2.367,0,0,1-.833,1.959,3.317,3.317,0,0,1-.755.4c-.491.225-1.03.146-1.526.345-.239.1-.58,0-.877.048-.337.055-.681.054-1.02.117a3.4,3.4,0,0,1-.752.2,9.014,9.014,0,0,0-1.128-.053c-.392.008-.788.025-1.182.047-1.12.063-2.242,0-3.36.038-.765.028-1.521-.07-2.283-.052a14.589,14.589,0,0,1-1.676-.111c-.777-.071-1.553-.147-2.327-.24a13.145,13.145,0,0,1-1.73-.265A2.308,2.308,0,0,1,59.1,52.665" transform="translate(-54.365 -40.897)" fill="#e9e9e9"/>
    <path id="Path_58685" data-name="Path 58685" d="M76.975,13.48H75.8q0-.283-.01-.566a.889.889,0,0,0-.75-.873,6.511,6.511,0,0,0-1.129-.031q-3.581-.008-7.163,0a1.2,1.2,0,0,0-1.157.464,2.076,2.076,0,0,0-.152,1.006H64.263c-.141-.408-.2-.45-.629-.45H60.468c-.323,0-.4-.087-.252-.375a2.169,2.169,0,0,1,1.706-1.334,6.563,6.563,0,0,1,.852-.046q7.688,0,15.377,0c.129,0,.258.007.387.011.027.051.041.118.082.15a2.578,2.578,0,0,1,.936,1.577c-.654.006-1.308.022-1.962.015a.557.557,0,0,0-.619.454" transform="translate(-55.341 -10.371)" fill="#d48eff"/>
    <path id="Path_58686" data-name="Path 58686" d="M78.218,298.815c-.149.006-.3.016-.447.016-5.658,0-11.316-.009-16.974.014a1.572,1.572,0,0,1-1.564-1.205.544.544,0,0,1,0-.272c.161,0,.221.15.329.222a2.853,2.853,0,0,0,1.954.548,2.012,2.012,0,0,1,.239,0H77.923l.627,0c0,.28-.3.419-.333.683" transform="translate(-54.485 -273.61)" fill="#c1c1c1"/>
    <path id="Path_58687" data-name="Path 58687" d="M270.2,326.861c.408,0,.817.008,1.225,0,.19-.006.266.045.26.248-.013.448,0,.9-.005,1.344a.732.732,0,0,1-.815.809c-.508,0-1.016,0-1.524,0a.613.613,0,0,1-.625-.61c-.009-.528,0-1.055-.009-1.583,0-.158.056-.207.208-.2.428.007.857,0,1.285,0" transform="translate(-247.236 -300.744)" fill="#ffbe00"/>
    <path id="Path_58688" data-name="Path 58688" d="M78.711,329.28a5.588,5.588,0,0,0-.656,0,.712.712,0,0,1-.763-.7c-.013-.507,0-1.015-.008-1.522,0-.151.072-.182.2-.181.856,0,1.712,0,2.567,0,.156,0,.208.052.205.207-.008.5.007,1-.007,1.493a.7.7,0,0,1-.705.7c-.278.011-.557,0-.836,0" transform="translate(-71.109 -300.766)" fill="#ffbe00"/>
    <path id="Path_58689" data-name="Path 58689" d="M12.676,46.949c0,.577,0,1.155,0,1.732a.716.716,0,0,1-.551.714.673.673,0,0,1-.765-.369.423.423,0,0,1-.062-.249c0-1.025-.008-2.051,0-3.076a.754.754,0,0,1,.806-.787c.574,0,.574,0,.574.572q0,.732,0,1.463" transform="translate(-10.39 -41.326)" fill="#ffbe00"/>
    <path id="Path_58690" data-name="Path 58690" d="M354.554,46.9c0-.6.01-1.2-.005-1.793-.006-.217.065-.271.269-.259.313.018.625-.029.873.255a.987.987,0,0,1,.244.672c.008.936.006,1.873,0,2.809a.776.776,0,0,1-.551.748.711.711,0,0,1-.8-.42.3.3,0,0,1-.038-.159c.009-.617.005-1.235.005-1.853" transform="translate(-326.223 -41.263)" fill="#ffbe00"/>
    <path id="Path_58691" data-name="Path 58691" d="M271.549,226.472q-1.284.007-2.569.014a.2.2,0,0,1-.236-.235c0-.359,0-.717,0-1.076,0-.111.038-.171.169-.194.849-.152,1.7-.318,2.545-.478a.314.314,0,0,1,.088.009q0,.98,0,1.96" transform="translate(-247.274 -206.567)" fill="#fbd307"/>
    <path id="Path_58692" data-name="Path 58692" d="M303.835,263.223v-2.715c.477-.005.955,0,1.432-.019.177-.006.159.093.163.206a4.038,4.038,0,0,1-.181,1.409,2.089,2.089,0,0,1-1.413,1.119" transform="translate(-279.561 -239.679)" fill="#a54cdc"/>
    <path id="Path_58693" data-name="Path 58693" d="M303.848,223.665q0-.98,0-1.96a7.588,7.588,0,0,1,1.315-.252c.2-.013.286.051.282.263-.01.547-.008,1.094,0,1.641,0,.224-.081.329-.314.323-.427-.012-.854-.011-1.282-.016" transform="translate(-279.574 -203.76)" fill="#f9c301"/>
    <path id="Path_58694" data-name="Path 58694" d="M303.848,183.586q0-.865,0-1.73a3.753,3.753,0,0,0,1.555-.79,2.875,2.875,0,0,1,.035.732c.006.447,0,.894,0,1.341,0,.078.044.186-.1.2-.5.052-.979.226-1.485.246" transform="translate(-279.571 -166.601)" fill="#a54cdc"/>
    <path id="Path_58695" data-name="Path 58695" d="M291.389,13.12a2.578,2.578,0,0,0-.936-1.577c-.041-.032-.055-.1-.082-.15a2.473,2.473,0,0,1,2.059.694,2.874,2.874,0,0,1,.514.9c.051.128-.016.155-.127.154-.476-.007-.952-.013-1.428-.019" transform="translate(-267.173 -10.48)" fill="#a54cdc"/>
    <path id="Path_58696" data-name="Path 58696" d="M297.068,299.068c.036-.264.329-.4.333-.683a3.219,3.219,0,0,0,1.7-.743,1.116,1.116,0,0,1-.45,1.139,2.193,2.193,0,0,1-1.586.287" transform="translate(-273.335 -273.864)" fill="#979797"/>
    <path id="Path_58697" data-name="Path 58697" d="M126.377,21.872a2.076,2.076,0,0,1,.152-1.006,1.2,1.2,0,0,1,1.157-.464q3.581-.007,7.162,0a6.512,6.512,0,0,1,1.13.031.889.889,0,0,1,.75.873q.005.283.01.566a3.608,3.608,0,0,0-.007.447.958.958,0,0,1-1.007,1.008c-1.125-.012-2.251,0-3.377,0q-2.421,0-4.841,0a1.013,1.013,0,0,1-1.1-.768,3.952,3.952,0,0,1-.027-.684m5.214.554v0h3.492c.789,0,.776,0,.793-.788.006-.279-.077-.348-.35-.346-2.468.01-4.935,0-7.4.007-.265,0-.615-.115-.774.05s-.021.512-.051.777.084.309.321.307c1.323-.01,2.647-.005,3.97-.005" transform="translate(-116.279 -18.763)"/>
    <path id="Path_58698" data-name="Path 58698" d="M143.12,237.249c-1.2,0-2.391,0-3.586,0a.441.441,0,0,1-.442-.651c.1-.23.308-.245.523-.245h3.252q1.93,0,3.859,0a.476.476,0,0,1,.5.3.466.466,0,0,1-.177.522c-.1.1-.225.073-.34.073q-1.793,0-3.586,0" transform="translate(-127.934 -217.47)"/>
    <path id="Path_58699" data-name="Path 58699" d="M143.015,257.991h-3.463c-.453,0-.643-.13-.658-.452-.013-.28.237-.445.677-.445h6.441c.213,0,.426-.008.638,0a.464.464,0,0,1,.461.474.443.443,0,0,1-.48.418c-1.205,0-2.41,0-3.615,0" transform="translate(-127.797 -236.553)"/>
    <path id="Path_58700" data-name="Path 58700" d="M143,216.714h-3.586a.449.449,0,1,1-.062-.891,1.166,1.166,0,0,1,.152-.006q3.525,0,7.05,0c.377,0,.548.138.553.429.005.311-.17.465-.551.466-1,0-2.006,0-3.008,0H143" transform="translate(-127.795 -198.575)"/>
    <path id="Path_58701" data-name="Path 58701" d="M141.931,32.392c-1.323,0-2.647-.005-3.97.005-.237,0-.35-.046-.321-.307s-.107-.612.051-.777.508-.05.774-.05c2.468,0,4.935,0,7.4-.007.272,0,.356.068.35.346-.017.788,0,.788-.793.788h-3.492Z" transform="translate(-126.619 -28.729)" fill="#ffbe00"/>
    <path id="Path_58702" data-name="Path 58702" d="M30.611,7.773a4.655,4.655,0,0,1-.587.811,1.5,1.5,0,0,1-1.6.3,1.418,1.418,0,0,1-.982-1.346c-.015-1.215-.022-2.431,0-3.646.005-.3-.119-.308-.344-.3s-.345-.01-.345.3q.018,9.7.006,19.4a2.924,2.924,0,0,1-.5,1.938,2.41,2.41,0,0,1-.709.6.377.377,0,0,0-.22.368c-.012.606.036,1.211-.032,1.818a1.629,1.629,0,0,1-1.651,1.414c-.546-.031-1.1-.013-1.643-.01a1.581,1.581,0,0,1-1.423-1.434c.008-.548-.009-1.1,0-1.644,0-.168-.044-.215-.214-.215q-5.051.007-10.1,0c-.2,0-.22.066-.223.237a14.593,14.593,0,0,1-.043,1.692,1.614,1.614,0,0,1-1.48,1.365A18.248,18.248,0,0,1,6.633,29.4a1.493,1.493,0,0,1-1.341-1.423c0-.608-.008-1.215,0-1.823a.241.241,0,0,0-.144-.245,2.334,2.334,0,0,1-1.292-2.347c.005-.059,0-.119,0-.179q0-9.728,0-19.457c0-.11.072-.287-.055-.321a1.333,1.333,0,0,0-.562,0c-.1.018-.047.157-.047.24,0,1.146.026,2.292-.012,3.437A1.591,1.591,0,0,1,0,7.512C.032,6.407,0,5.3.007,4.194a1.765,1.765,0,0,1,1.3-1.46,21.736,21.736,0,0,1,2.342-.074c.149-.008.21-.012.257-.207A3,3,0,0,1,6.349.076,3.691,3.691,0,0,1,7.108,0q8.174.008,16.348,0A3.133,3.133,0,0,1,26,1.1a2.677,2.677,0,0,1,.658,1.332c.031.227.123.224.281.224.578,0,1.156.005,1.734,0a1.81,1.81,0,0,1,1.888,1.412c.005.022.036.039.054.058ZM24.275,19.9c.427,0,.855,0,1.282.016.233.006.317-.1.314-.323-.007-.547-.009-1.094,0-1.641,0-.212-.079-.276-.282-.263a7.59,7.59,0,0,0-1.315.252.321.321,0,0,0-.089-.009c-.848.16-1.7.326-2.544.478-.131.024-.169.083-.169.194,0,.359,0,.717,0,1.076,0,.16.072.236.236.235.856-.006,1.712-.01,2.569-.014m-.542,5.3a2.193,2.193,0,0,0,1.586-.287,1.116,1.116,0,0,0,.45-1.139,3.218,3.218,0,0,1-1.7.743c-.209,0-.418,0-.627,0H7.271a2.018,2.018,0,0,0-.239,0,2.852,2.852,0,0,1-1.954-.548c-.109-.072-.168-.224-.329-.222a.544.544,0,0,0,0,.272,1.572,1.572,0,0,0,1.564,1.205c5.658-.023,11.316-.013,16.974-.014.149,0,.3-.01.447-.016M23.2.9C23.017.9,22.837.9,22.657.9L7.833.9a5.039,5.039,0,0,0-1.805.22A1.711,1.711,0,0,0,4.879,2.426a.244.244,0,0,0,.02.156c.048.077.155.085.246.085l2.93-.022c.364,0,.86.122.838.486-.02.336-.467.43-.8.429l-3-.01a.378.378,0,0,0-.3.085.377.377,0,0,0-.061.252q0,3.5,0,7a6.1,6.1,0,0,0,.1,2,2.173,2.173,0,0,0,1.094,1.283,5.413,5.413,0,0,0,1.829.445,63.023,63.023,0,0,0,15.285-.051,3.385,3.385,0,0,0,2.311-.946,3.47,3.47,0,0,0,.5-2.212q0-3.821,0-7.643a.238.238,0,0,0-.039-.16.239.239,0,0,0-.187-.053l-3.126.016a1.319,1.319,0,0,1-.592-.088.452.452,0,0,1-.268-.488c.075-.272.43-.328.713-.331l3.369-.036A1.719,1.719,0,0,0,24.6,1.154,3.952,3.952,0,0,0,23.2.9M6.325,20.379a.345.345,0,0,1,0,.061.547.547,0,0,1-.539.392c-.24.015-.48-.054-.72-.044a.361.361,0,0,0-.26.094.431.431,0,0,0-.066.321,3.027,3.027,0,0,0,.249,1.372,1.819,1.819,0,0,0,.983.844l.012,0a4.909,4.909,0,0,0,1.74.211l14.825.007a3.83,3.83,0,0,0,2.793-.746,1.921,1.921,0,0,0,.494-1.775.427.427,0,0,0-.147-.263.479.479,0,0,0-.281-.054l-3.114.043a1.828,1.828,0,0,1-1.456-.412,1.758,1.758,0,0,1-.3-1.111,1.857,1.857,0,0,1,.435-1.536,1.894,1.894,0,0,1,.895-.33l3.7-.681a.3.3,0,0,0,.319-.368q-.019-.969-.039-1.938a5.359,5.359,0,0,1-2.97,1.025,60.338,60.338,0,0,1-9.453.426c-.909-.03-1.818-.081-2.726-.132a13.633,13.633,0,0,1-5.967-1.254q.023,1.105.045,2.21,2.1.322,4.171.773a1.657,1.657,0,0,1,.669.253,1.7,1.7,0,0,1,.445,1.4,1.9,1.9,0,0,1-.29,1.252,1.731,1.731,0,0,1-1.491.412,1.159,1.159,0,0,1-.538-.136.433.433,0,0,1-.209-.476A.5.5,0,0,1,8,19.941a5.682,5.682,0,0,0,.588.006.821.821,0,0,0,.514-1.229,1.584,1.584,0,0,0-1.066-.485l-3.052-.526a.222.222,0,0,0-.177.019.223.223,0,0,0-.056.181l-.008,1.648a.4.4,0,0,0,.09.313.355.355,0,0,0,.239.064,4.049,4.049,0,0,1,.775-.015.556.556,0,0,1,.475.461M22.96,26.117c-.428,0-.856,0-1.285,0-.152,0-.211.046-.208.2.009.528,0,1.056.009,1.583a.613.613,0,0,0,.625.61c.508,0,1.016,0,1.524,0a.732.732,0,0,0,.815-.808c.006-.448-.008-.9.006-1.344.006-.2-.07-.254-.26-.248-.408.012-.816,0-1.225,0M7.6,28.514c.279,0,.558.009.836,0a.7.7,0,0,0,.705-.7c.014-.5,0-1,.007-1.493,0-.155-.05-.208-.205-.207-.856.005-1.712,0-2.567,0-.131,0-.2.03-.2.181.006.507-.006,1.015.008,1.522a.712.712,0,0,0,.763.7,5.67,5.67,0,0,1,.656,0M2.286,5.624V4.16c0-.575,0-.575-.574-.572a.754.754,0,0,0-.806.787C.9,5.4.9,6.426.906,7.451A.423.423,0,0,0,.968,7.7a.673.673,0,0,0,.765.369.716.716,0,0,0,.551-.714c.007-.577,0-1.155,0-1.732m26.044.013c0,.618,0,1.235-.005,1.853a.3.3,0,0,0,.038.159.711.711,0,0,0,.8.42.776.776,0,0,0,.551-.748c.005-.936.006-1.873,0-2.809a.987.987,0,0,0-.244-.673c-.248-.284-.56-.237-.873-.255-.2-.012-.275.043-.269.259.015.6.005,1.2.006,1.793" transform="translate(0 0)"/>
  </g>
</svg>
