<svg xmlns="http://www.w3.org/2000/svg" xmlns:xlink="http://www.w3.org/1999/xlink" width="31.583" height="32.655" viewBox="0 0 31.583 32.655">
  <defs>
    <clipPath id="clip-path">
      <rect id="Rectangle_588" data-name="Rectangle 588" width="31.583" height="32.655" fill="none"/>
    </clipPath>
  </defs>
  <g id="Group_5346" data-name="Group 5346" transform="translate(0)">
    <g id="Group_5345" data-name="Group 5345" transform="translate(0)" clip-path="url(#clip-path)">
      <path id="Path_58660" data-name="Path 58660" d="M270.351,229.146c0-.341-.06-.855-.061-1.2,0-.067.037-.173-.064-.186a.845.845,0,0,0-.375.022c-.062.022.015.126.027.193.059.348.27.807.341,1.149l.132.017" transform="translate(-257.246 -212.158)" fill="#f5e7ba"/>
      <path id="Path_58661" data-name="Path 58661" d="M269.921,38.547c-.385.395-.768.793-1.158,1.184a.545.545,0,0,1-.884-.172c-.167-.439-.269-.906-.468-1.328a1.119,1.119,0,0,1,.2-1.153,1.654,1.654,0,0,0-.014-1.646,11.635,11.635,0,0,1-.385-1.121,6.192,6.192,0,0,0-.93.756c-.244.182-.452.411-.686.607a.546.546,0,0,1-.868-.183,13.344,13.344,0,0,1-.565-1.66.5.5,0,0,1,.053-.4c.543-.824,1-1.7,1.587-2.5a.414.414,0,0,0,.053-.405c-.168-.527-.393-1.034-.547-1.567a.733.733,0,0,1,.036-.6c.23-.384.368-.808.578-1.2a.607.607,0,0,1,.862-.287,11.636,11.636,0,0,0,1.081.537.981.981,0,0,1,.623.741c.107.452.358.849.445,1.305a.273.273,0,0,0,.2.217c.536.178,1.066.372,1.636.574,0-.6-.009-1.172,0-1.743a12.954,12.954,0,0,1,.045-1.844,1.728,1.728,0,0,1,.66-1.129c.055-.043.122-.038.078-.154-.306-.827-.6-1.659-.894-2.491q-.6-1.715-1.191-3.433c-.2-.6-.2-.6-.762-.4-1.19.415-2.381.827-3.571,1.243-1.084.379-2.167.764-3.251,1.143-.9.315-1.8.625-2.7.942-.13.046-.21.088-.142.29.463,1.38.97,2.744,1.458,4.114.358,1,.7,2.017,1.055,3.021.292.818.59,1.635.872,2.455.272.793.535,1.594.811,2.385q.428,1.225.869,2.45c.235.649.462,1.3.689,1.953s.452,1.283.685,1.922c.356.979.712,1.958,1.05,2.943.066.191.161.124.262.089,1.225-.435,2.447-.879,3.675-1.3a.375.375,0,0,0,.31-.422c-.013-1.181-.006-2.363-.006-3.544,0-.517,0-.517-.521-.509a1.373,1.373,0,0,1-.323.324M264.744,24c0-.076,0-.138.105-.159a3.035,3.035,0,0,0,.349-.12c.453-.147.453-.146.618.281.23.594.228.589-.392.81a.691.691,0,0,0-.228.083.1.1,0,0,1-.173-.047,7.247,7.247,0,0,0-.28-.848m3.728-1.355c-.036-.073.026-.069.073-.086.269-.1.562-.316.8-.266.2.043.2.45.311.687a.72.72,0,0,1,.063.2c.01.071.01.131-.1.158a5.374,5.374,0,0,0-.64.213c-.073.028-.162.075-.193,0-.116-.3-.21-.6-.312-.9m-1.125.321c.145-.033.181-.005.211.089a4.047,4.047,0,0,0,.258.658c.092.176.006.257-.121.317-.642.3-.706.277-.971-.365-.039-.1-.072-.194-.109-.291-.023-.061-.047-.132.03-.161.25-.094.5-.178.7-.247m-6.375,2.256c.156-.055.312-.1.463-.165.479-.2.476-.2.629.313a1.369,1.369,0,0,0,.148.371c.108.162-.015.23-.11.251-.2.044-.384.143-.58.2-.113.033-.185.043-.247-.125-.1-.28-.2-.565-.3-.846m2.673-.941c.086.032.156-.024.2.085.367.835.361.86-.439,1.165-.009,0-.016.014-.025.019a.153.153,0,0,1-.232-.089c-.1-.261-.178-.527-.261-.792-.012-.038-.1-.09.022-.128.254-.077.5-.176.732-.259" transform="translate(-257.72 -17.639)" fill="#fddf7c"/>
      <path id="Path_58662" data-name="Path 58662" d="M83.232,78.16q-1.654-.431-3.309-.863-2.659-.7-5.317-1.4a.555.555,0,0,0-.779.556c-.023.531,0,1.063-.009,1.6,0,.229.145.19.278.19h9.123l.013-.075" transform="translate(-56.705 -70.666)" fill="#b746ff"/>
      <path id="Path_58663" data-name="Path 58663" d="M270.339,160.74a5.944,5.944,0,0,0-.39.9,1.026,1.026,0,0,0,.071,1.125c.2-.209.419-.565.609-.811a.985.985,0,0,1,1.238-.319c.093.029.473-.24.476-.388,0-.228.026-.642-.275-.751-.567-.206-.657-.574-.828-1.042-.365-1-.761-1.983-1.113-2.989-.313-.893-.493-1.877-.885-2.728-.123-.352-.338-.835-.468-1.184a1.413,1.413,0,0,0-.718-.191c-.094.049-.571.258-.526.388.16.47.461,1.442.622,1.912.339.986.694,1.96,1.033,2.946a15.24,15.24,0,0,0,.533,1.5.111.111,0,0,1,.074.139c.107.5.532.879.6,1.4.042.017-.05.008-.049.094" transform="translate(-259.083 -141.921)" fill="#fff"/>
      <path id="Path_58664" data-name="Path 58664" d="M330.1,211.983c-.055.011-.084.074-.125.139q-.431.692-.874,1.377c-.141.219.054.366.116.536.036.1.121.023.178-.026.366-.317.73-.638,1.1-.948.072-.06.044-.089.021-.152-.1-.272-.195-.546-.277-.823-.021-.071-.03-.12-.141-.1" transform="translate(-321.494 -197.464)" fill="#d8a511"/>
      <path id="Path_58665" data-name="Path 58665" d="M270.634,194.938c.085.234.17.467.245.7a1.411,1.411,0,0,0,.085.225.428.428,0,0,0,.158.177.456.456,0,0,0,.3.038,1.514,1.514,0,0,1,.239-.016c.065,0,.156.027.207-.029a.141.141,0,0,0,.027-.055,1.686,1.686,0,0,0,.024-.532.2.2,0,0,0-.019-.1.205.205,0,0,0-.129-.074,7.882,7.882,0,0,0-1.143-.342" transform="translate(-258.885 -181.589)" fill="#d8a511"/>
      <path id="Path_58666" data-name="Path 58666" d="M.5,3.918a12.8,12.8,0,0,0,1.423-.475C3,3.065,4.078,2.676,5.16,2.306c.628-.215,1.237-.487,1.868-.691.9-.292,1.788-.636,2.689-.935C10.4.456,11.05.159,11.751,0l.377.013.256.319c.586,1.744,1.208,3.474,1.841,5.2q.343.934.644,1.882c.042.133.086.168.208.164.3-.01.593-.015.89-.023.062.01.057-.029.051-.069,0-.511-.012-1.022.017-1.532a1.885,1.885,0,0,1,.541-1.407,1.655,1.655,0,0,1,1.585-.381q.967.249,1.931.507c.9.24,1.8.488,2.7.725,1.04.273,2.084.536,3.126.808.545.142,1.087.3,1.631.442q1.59.42,3.181.835c.04.01.081.017.121.029.733.227.733.227.733.992q0,11.111,0,22.224a2.835,2.835,0,0,1-.066.792,1.816,1.816,0,0,1-1.175,1.133H14.37c-.112-.11-.273-.1-.407-.172a1.837,1.837,0,0,1-.914-1.745c-.014-1.032,0-2.065,0-3.1v-1.5a.678.678,0,0,0-.114.013q-2.086.729-4.172,1.458a.557.557,0,0,1-.776-.389c-.575-1.62-1.158-3.237-1.722-4.861q-.943-2.713-1.913-5.415c-.79-2.2-1.546-4.414-2.319-6.62Q1.516,8.862,1,7.4C.689,6.525.382,5.646.063,4.77A.57.57,0,0,1,.5,3.918M23.219,6.632q-2.659-.7-5.317-1.4a.556.556,0,0,0-.779.556c-.023.531,0,1.063-.009,1.595,0,.229.145.19.278.19q1.643,0,3.286,0h5.836c0-.025.009-.05.013-.075q-1.654-.431-3.308-.864m3.482.93c-.008,0-.018,0-.028.008s0,.018,0,.021A.035.035,0,0,0,26.7,7.6c.031-.013.03-.027,0-.035M14.981,31.567H29.7c.664,0,.788-.125.788-.8q0-5.412,0-10.825,0-5.46.007-10.92c0-.283-.072-.352-.353-.352q-7.583.014-15.167.007c-.664,0-.84.178-.84.85q0,10.6,0,21.2c0,.662.181.842.846.842M13.061,19.41a.343.343,0,0,0,.052-.115.737.737,0,0,0,.006-.237c0-.047.017-.1,0-.14A.359.359,0,0,0,13,18.783a1.254,1.254,0,0,0-.162-.1c-.052-.028-.1-.056-.153-.088a1.732,1.732,0,0,1-.589-.946L9.947,11.5c-.144-.411-.334-.871-.743-1.02a.3.3,0,0,0-.317.035.331.331,0,0,0-.072.157A3.28,3.28,0,0,0,9.1,12.523l2.184,6a.824.824,0,0,1,.071.334.746.746,0,0,1-.112.306,4.8,4.8,0,0,0-.392.734.9.9,0,0,0,.055.8,4.534,4.534,0,0,0,.754-.824,1.034,1.034,0,0,1,.979-.414.626.626,0,0,0,.263.053.244.244,0,0,0,.156-.106m-.023-2.943.01-.764a.1.1,0,0,0-.016-.071.1.1,0,0,0-.06-.025.883.883,0,0,0-.339.012.064.064,0,0,0-.047.027.072.072,0,0,0,.007.058,2.947,2.947,0,0,1,.081.288,5.778,5.778,0,0,1,.3.851.246.246,0,0,0,.016.074.07.07,0,0,0,.057.044.043.043,0,0,0,.043-.029c.007-.018-.005-.038-.011-.056s-.012-.045-.017-.068-.008-.044-.011-.066a2.041,2.041,0,0,1-.01-.275m0-2.61a.145.145,0,0,0-.1-.15,9.729,9.729,0,0,0-1.2-.36c.111.317.209.581.3.848a.423.423,0,0,0,.585.277c.128-.039.329.074.379-.054a1.8,1.8,0,0,0,.034-.562M8.6,14.519c-.055.011-.084.074-.125.139q-.43.692-.875,1.378c-.141.219.055.366.116.536.036.1.121.023.177-.026.366-.318.731-.638,1.1-.948.072-.06.044-.089.021-.152-.1-.272-.194-.546-.277-.823-.021-.071-.029-.12-.141-.1M1.316,5.032c.464,1.38.97,2.744,1.458,4.114.358,1,.7,2.017,1.055,3.021.292.818.59,1.635.872,2.455.272.793.535,1.594.811,2.385q.428,1.225.869,2.45c.235.649.462,1.3.688,1.953s.452,1.283.685,1.922c.356.979.712,1.958,1.051,2.943.065.192.16.125.261.089,1.225-.435,2.447-.879,3.675-1.305a.375.375,0,0,0,.31-.421c-.013-1.181-.006-2.363-.006-3.545,0-.517,0-.517-.52-.509a1.382,1.382,0,0,1-.323.324c-.386.4-.768.793-1.158,1.184a.546.546,0,0,1-.884-.173c-.166-.439-.269-.905-.468-1.328a1.119,1.119,0,0,1,.2-1.153,1.655,1.655,0,0,0-.014-1.646,11.833,11.833,0,0,1-.386-1.121,6.165,6.165,0,0,0-.929.756c-.244.181-.452.411-.686.607A.546.546,0,0,1,7,17.85a13.346,13.346,0,0,1-.566-1.66.5.5,0,0,1,.053-.4c.543-.825,1-1.7,1.587-2.5a.415.415,0,0,0,.053-.405c-.168-.527-.392-1.034-.546-1.567a.734.734,0,0,1,.036-.6c.23-.383.368-.807.578-1.2a.606.606,0,0,1,.861-.288,11.75,11.75,0,0,0,1.081.538.98.98,0,0,1,.623.741c.108.452.358.849.445,1.305a.274.274,0,0,0,.2.217c.536.178,1.066.373,1.636.575,0-.6-.009-1.172,0-1.744a12.954,12.954,0,0,1,.045-1.844,1.732,1.732,0,0,1,.66-1.129c.055-.042.121-.038.079-.153-.307-.827-.6-1.659-.894-2.491q-.6-1.714-1.192-3.434c-.2-.6-.2-.6-.762-.4-1.19.415-2.381.827-3.571,1.243-1.084.379-2.167.764-3.251,1.143-.9.316-1.8.626-2.7.942-.13.046-.21.088-.142.29" transform="translate(0)"/>
      <path id="Path_58667" data-name="Path 58667" d="M70.911,110.422c0,.007,0,.019,0,.021a.037.037,0,0,0,.028.006c.031-.013.03-.028,0-.035-.008,0-.018.005-.027.008" transform="translate(-44.238 -102.852)" fill="#364c3c"/>
      <path id="Path_58668" data-name="Path 58668" d="M72.022,382.334c1.352,0,2.7-.006,4.055.005.251,0,.353-.041.347-.324-.016-.783,0-.783-.78-.783-2.543,0-5.087,0-7.63-.006-.256,0-.347.05-.34.327.017.781,0,.781.773.781Z" transform="translate(-49.476 -355.119)"/>
      <path id="Path_58669" data-name="Path 58669" d="M83.618,413.257c-.008.327-.14.744.044.956s.6.059.916.06c1.744.006,3.489,0,5.233.009.263,0,.372-.037.363-.34-.023-.763-.005-.764-.766-.764H84.017c-.116,0-.233.011-.349.017l-.049.061" transform="translate(-64.315 -384.884)"/>
      <path id="Path_58670" data-name="Path 58670" d="M124.683,349.852c0-.544,0-.544-.559-.544-.534,0-.534,0-.534.538,0,.576,0,.576.56.576.533,0,.533,0,.533-.57" transform="translate(-101.564 -325.387)"/>
      <path id="Path_58671" data-name="Path 58671" d="M91.833,349.877c0,.547,0,.547.547.547s.542,0,.542-.551,0-.563-.562-.563c-.527,0-.527,0-.527.567" transform="translate(-67.628 -325.389)"/>
      <path id="Path_58672" data-name="Path 58672" d="M155.395,349.706c0,.566,0,.566.574.566.525,0,.525,0,.525-.517,0-.6,0-.6-.6-.6a.827.827,0,0,1-.128,0c-.284-.045-.423.054-.37.358a1.136,1.136,0,0,1,0,.191" transform="translate(-135.552 -325.237)"/>
      <path id="Path_58673" data-name="Path 58673" d="M178.592,413.5l.049-.061c-.047,0-.056.021-.049.061" transform="translate(-159.289 -385.123)" fill="#020201"/>
      <path id="Path_58674" data-name="Path 58674" d="M340.9,87.909a7.246,7.246,0,0,1,.28.848.1.1,0,0,0,.173.047.7.7,0,0,1,.228-.083c.62-.222.622-.216.392-.81-.165-.427-.166-.428-.618-.281a3.05,3.05,0,0,1-.349.12c-.106.02-.106.083-.105.159" transform="translate(-333.877 -81.548)" fill="#020201"/>
      <path id="Path_58675" data-name="Path 58675" d="M285.945,68.227c.1.3.2.606.312.9.031.079.12.032.193,0a5.386,5.386,0,0,1,.64-.213c.109-.027.109-.087.1-.158a.723.723,0,0,0-.063-.2c-.11-.237-.107-.644-.311-.687-.236-.05-.529.167-.8.266-.046.017-.109.013-.073.086" transform="translate(-275.193 -63.22)" fill="#020201"/>
      <path id="Path_58676" data-name="Path 58676" d="M313.934,77.628c-.2.068-.451.153-.7.247-.077.029-.053.1-.029.161.037.1.069.2.109.291.265.642.329.668.971.365.126-.06.213-.141.121-.317a4.042,4.042,0,0,1-.258-.658c-.03-.094-.067-.122-.211-.089" transform="translate(-304.306 -72.299)" fill="#020201"/>
      <path id="Path_58677" data-name="Path 58677" d="M394.974,106.841c.107.281.2.566.3.846.062.168.134.158.247.125.2-.058.376-.157.58-.2.095-.021.217-.089.11-.251a1.371,1.371,0,0,1-.148-.371c-.152-.51-.149-.509-.629-.313-.151.062-.307.11-.463.165" transform="translate(-391.721 -99.257)" fill="#020201"/>
      <path id="Path_58678" data-name="Path 58678" d="M369.069,97.007c-.23.083-.478.182-.732.259-.126.038-.034.09-.022.128.083.265.165.531.261.792a.153.153,0,0,0,.232.089c.009,0,.016-.015.025-.019.8-.3.806-.33.439-1.165-.048-.109-.118-.054-.2-.085" transform="translate(-363.144 -90.364)" fill="#020201"/>
      <path id="Path_58679" data-name="Path 58679" d="M15.891,127.427c0-.672.176-.85.84-.85q7.583,0,15.167-.007c.281,0,.353.069.353.352q-.015,5.46-.007,10.92,0,5.412,0,10.825c0,.678-.123.8-.788.8H16.736c-.665,0-.846-.179-.846-.842q0-10.6,0-21.2M21.6,142.372c0,.566,0,.566.574.566.525,0,.525,0,.525-.516,0-.6,0-.6-.6-.6a.875.875,0,0,1-.127,0c-.284-.045-.423.054-.37.358a1.11,1.11,0,0,1,0,.191m2.183-.01c0,.576,0,.576.56.576.533,0,.533,0,.533-.57,0-.544,0-.544-.559-.544-.534,0-.534,0-.534.538m2.179.029c0,.547,0,.547.546.547s.542,0,.542-.551,0-.563-.562-.563c-.527,0-.527,0-.527.567M21.1,147.231c.176.2.6.06.916.06,1.744.007,3.488,0,5.233.009.262,0,.372-.037.363-.34-.023-.763-.005-.764-.766-.764q-2.7,0-5.392,0c-.116,0-.233.011-.349.017-.047,0-.056.021-.049.061-.008.327-.14.744.045.955m-.377-2.115H24.3c1.352,0,2.7-.005,4.055.005.251,0,.353-.041.347-.324-.016-.783,0-.783-.78-.783-2.543,0-5.087,0-7.63-.005-.257,0-.347.05-.341.327.017.781,0,.781.774.781" transform="translate(-1.756 -117.902)" fill="#e3b7ff"/>
      <path id="Path_58680" data-name="Path 58680" d="M67.289,167.609a4.665,4.665,0,0,0-1.538.261,4.711,4.711,0,0,0-1.989,7.548,4.75,4.75,0,0,0,.8.726c.131.094.267.181.4.268.1.063.2.126.3.182a3.488,3.488,0,0,0,.782.309,4.738,4.738,0,1,0,1.245-9.294m.376,4.718c0-.248,0-.5,0-.743,0-.116.025-.167.154-.165q.717.01,1.434,0c.125,0,.143.046.159.162a5.619,5.619,0,0,1,0,1.49c-.018.141-.065.166-.186.165-.461,0-.922-.008-1.383,0-.154,0-.186-.056-.18-.194.009-.239,0-.478,0-.717m-.71-.021c0,.256,0,.512,0,.768,0,.12-.034.164-.158.162-.435-.006-.87,0-1.305,0-.1,0-.171-.02-.187-.127a5.16,5.16,0,0,1,.006-1.538.168.168,0,0,1,.191-.153c.426.011.853.009,1.28,0,.132,0,.181.033.175.171-.01.238,0,.478,0,.717m-2.922.913v.008a2.472,2.472,0,0,0-.408,0c-.185.031-.236-.085-.262-.214a3.863,3.863,0,0,1,0-1.38c.012-.075-.009-.232.171-.226.323.011.646,0,.97.006.039,0,.116-.042.1.078a4.46,4.46,0,0,0-.024,1.222,3.77,3.77,0,0,1,.01.5Zm6.636-1.8c.136,0,.274.008.409,0a.153.153,0,0,1,.19.139,3.42,3.42,0,0,1,0,1.524c-.028.126-.1.155-.216.151-.247-.007-.5-.015-.742,0-.193.013-.234-.058-.2-.232a3.093,3.093,0,0,0,.009-1.232c-.057-.309-.024-.35.286-.35h.256m-1.48-.717H67.852c-.089,0-.191.029-.19-.126,0-.641,0-1.283,0-1.981a4.832,4.832,0,0,1,1.524,2.107m-1.525,5.34q0-.991,0-1.983a.1.1,0,0,1,.135-.121h1.244a.14.14,0,0,1,.087.02c.035.031,0,.051-.013.084a1.3,1.3,0,0,0-.082.223,2.2,2.2,0,0,1-.219.434,4.363,4.363,0,0,1-1,1.232c-.049.038-.1.074-.151.11m-1.657.086a4.3,4.3,0,0,1-2.361-2.187c.355,0,.67,0,.984,0a.2.2,0,0,1,.229.173,5.006,5.006,0,0,0,.759,1.475,3.158,3.158,0,0,1,.389.541m-2.333-5.422a3.583,3.583,0,0,1,2.294-2.085l-.353.44a4.869,4.869,0,0,0-.768,1.509c-.034.1-.08.137-.177.137-.33,0-.66,0-1,0m3.281-2.012c0,.65,0,1.261,0,1.873,0,.146-.076.14-.177.14-.349,0-.7-.008-1.048,0-.175,0-.2-.034-.129-.2a4.677,4.677,0,0,1,1.351-1.816m0,7.253a5,5,0,0,1-1.356-1.843c-.056-.124-.047-.168.095-.167q.561,0,1.123,0c.092,0,.14.021.14.126,0,.617,0,1.234,0,1.884M71,173.942a4.1,4.1,0,0,1-2.239,2.153c-.03-.062-.013-.089.011-.115a5.451,5.451,0,0,0,1.12-1.9c.039-.108.076-.142.188-.139.289.008.579,0,.921,0m-2.263-5.324a3.6,3.6,0,0,1,2.225,2.091c-.309,0-.616-.006-.923,0a.145.145,0,0,1-.161-.122,5.454,5.454,0,0,0-1.141-1.973" transform="translate(-44.787 -156.131)"/>
    </g>
  </g>
</svg>
