<svg xmlns="http://www.w3.org/2000/svg" xmlns:xlink="http://www.w3.org/1999/xlink" width="68" height="67" viewBox="0 0 68 67">
  <defs>
    <filter id="Path_12830" x="0" y="0" width="68" height="67" filterUnits="userSpaceOnUse">
      <feOffset dx="3" dy="2" input="SourceAlpha"/>
      <feGaussianBlur result="blur"/>
      <feFlood flood-color="#ffbe00"/>
      <feComposite operator="in" in2="blur"/>
      <feComposite in="SourceGraphic"/>
    </filter>
  </defs>
  <g id="Group_4976" data-name="Group 4976" transform="translate(22640.221 -5710.225)">
    <g transform="matrix(1, 0, 0, 1, -22640.22, 5710.22)" filter="url(#Path_12830)">
      <g id="Path_12830-2" data-name="Path 12830" fill="#fff">
        <path d="M 32.5 64 C 28.24708938598633 64 24.12191963195801 63.16727828979492 20.23908996582031 61.52499008178711 C 16.48821067810059 59.93849945068359 13.11937046051025 57.66709136962891 10.22614002227783 54.77386856079102 C 7.332910060882568 51.88063812255859 5.061500072479248 48.51179885864258 3.475019931793213 44.76092147827148 C 1.832720041275024 40.87807846069336 1 36.75291061401367 1 32.5 C 1 28.24708938598633 1.832720041275024 24.12191963195801 3.475019931793213 20.23908042907715 C 5.061500072479248 16.48819923400879 7.332910060882568 13.11935997009277 10.22614002227783 10.22612953186035 C 13.11937046051025 7.332910060882568 16.48821067810059 5.061500072479248 20.23908996582031 3.475009918212891 C 24.12191963195801 1.832720041275024 28.24708938598633 1 32.5 1 C 36.7529182434082 1 40.87807846069336 1.832720041275024 44.76092147827148 3.475009918212891 C 48.51179885864258 5.061500072479248 51.88063812255859 7.332910060882568 54.77386856079102 10.22612953186035 C 57.66709136962891 13.11935997009277 59.93849945068359 16.48819923400879 61.52499008178711 20.23908042907715 C 63.16727828979492 24.12191963195801 64 28.24707984924316 64 32.5 C 64 36.7529182434082 63.16727828979492 40.87807846069336 61.52499008178711 44.76092147827148 C 59.93849945068359 48.51179885864258 57.66709136962891 51.88063812255859 54.77386856079102 54.77386856079102 C 51.88063812255859 57.66709136962891 48.51179885864258 59.93849945068359 44.76092147827148 61.52499008178711 C 40.87807846069336 63.16727828979492 36.7529182434082 64 32.5 64 Z" stroke="none"/>
        <path d="M 32.5 2 C 28.38164138793945 2 24.38753890991211 2.806140899658203 20.62863159179688 4.396018981933594 C 16.9969482421875 5.932090759277344 13.73495101928711 8.13153076171875 10.9332389831543 10.9332389831543 C 8.13153076171875 13.73495101928711 5.932090759277344 16.9969482421875 4.396018981933594 20.62863159179688 C 2.806140899658203 24.38753890991211 2 28.38164138793945 2 32.5 C 2 36.61836242675781 2.806140899658203 40.61245727539062 4.396018981933594 44.37136840820312 C 5.932090759277344 48.0030517578125 8.13153076171875 51.26504898071289 10.9332389831543 54.0667610168457 C 13.73495101928711 56.86846923828125 16.9969482421875 59.06790924072266 20.62863159179688 60.60398101806641 C 24.38753890991211 62.1938591003418 28.38164138793945 63 32.5 63 C 36.61836242675781 63 40.61245727539062 62.1938591003418 44.37136840820312 60.60398101806641 C 48.0030517578125 59.06790924072266 51.26504898071289 56.86846923828125 54.0667610168457 54.0667610168457 C 56.86846923828125 51.26504898071289 59.06790924072266 48.0030517578125 60.60398101806641 44.37136840820312 C 62.1938591003418 40.61245727539062 63 36.61836242675781 63 32.5 C 63 28.38164138793945 62.1938591003418 24.38753890991211 60.60398101806641 20.62863159179688 C 59.06790924072266 16.9969482421875 56.86846923828125 13.73495101928711 54.0667610168457 10.9332389831543 C 51.26504898071289 8.13153076171875 48.0030517578125 5.932090759277344 44.37136840820312 4.396018981933594 C 40.61245727539062 2.806140899658203 36.61836242675781 2 32.5 2 M 32.5 0 C 50.44926071166992 0 65 14.55073928833008 65 32.5 C 65 50.44926071166992 50.44926071166992 65 32.5 65 C 14.55073928833008 65 0 50.44926071166992 0 32.5 C 0 14.55073928833008 14.55073928833008 0 32.5 0 Z" stroke="none" fill="#000"/>
      </g>
    </g>
    <g id="Group_356" data-name="Group 356" transform="translate(-22618.531 5731.754)">
      <g id="Group_357" data-name="Group 357" transform="translate(0 0)">
        <path id="Path_12829" data-name="Path 12829" d="M20.609,12.794h-.714c-5.541,0-7.081,0-12.622,0a1.831,1.831,0,1,1-.056-3.653c2.475-.005.95,0,3.426,0h9.967c-.2-.221-.322-.359-.45-.488q-2.745-2.748-5.49-5.5a1.8,1.8,0,0,1-.411-2.1,1.725,1.725,0,0,1,1.8-1.033,2.262,2.262,0,0,1,1.152.542q4.576,4.511,9.1,9.077a1.779,1.779,0,0,1,0,2.648q-4.532,4.556-9.088,9.087a1.822,1.822,0,1,1-2.554-2.6c1.822-1.839,3.659-3.665,5.489-5.5.128-.128.246-.266.449-.487" transform="translate(-5.281 -0.001)" fill="#ffbe00"/>
      </g>
    </g>
  </g>
</svg>
